<svg data-v-423bf9ae="" xmlns="http://www.w3.org/2000/svg" viewBox="0 0 364.19397887878944 183" class="iconAboveSlogan"><!----><!----><!----><g data-v-423bf9ae="" id="e5833a81-50b5-4fe6-9dc3-54ac28077fa8" fill="" transform="matrix(4.861105015746644,0,0,4.861105015746644,-1.458331549228717,88.65973925649611)"><path d="M5.15 12.78L6.91 11.53L6.74 11.20Q6.19 11.66 6.21 9.74L6.21 9.74Q6.28 5.43 6.19 4.76Q6.09 4.10 5.56 3.62L5.56 3.62L4.06 4.74L4.06 4.98Q4.55 4.83 4.63 5.22L4.63 5.22Q4.81 7.16 4.68 10.08L4.68 10.08Q3.73 11.25 3.08 10.91Q2.42 10.58 2.43 8.48L2.43 8.48Q2.47 5.50 2.42 4.79Q2.37 4.07 1.78 3.55L1.78 3.55L0.30 4.73L0.33 4.96Q0.84 4.84 0.91 5.24L0.91 5.24L0.94 9.38Q0.88 10.66 1.09 11.44Q1.30 12.21 1.92 12.58Q2.55 12.95 3.13 12.57Q3.71 12.19 4.08 11.77Q4.45 11.35 4.65 11.04L4.65 11.04Q4.58 12.26 5.15 12.78L5.15 12.78ZM11.07 3.48Q10.73 3.49 10.51 3.64Q10.29 3.80 9.04 5.41L9.04 5.41L9.33 5.63Q9.75 5.11 10.02 4.95Q10.29 4.79 10.41 5.36L10.41 5.36L9.37 8.38L8.74 8.38L7.34 9.75L7.47 9.97Q8.18 9.82 8.71 9.86L8.71 9.86Q8.37 10.79 8.07 11.34Q7.77 11.88 7.20 12.38L7.20 12.38L7.30 12.69L9.52 12.68L10.50 11.39L10.40 11.27L8.71 11.26Q9.20 11.01 9.71 9.86L9.71 9.86L11.06 9.85L11.74 9.12Q12.64 11.66 13.05 12.16Q13.46 12.67 13.91 12.78L13.91 12.78L14.97 11.53Q14.16 11.35 13.01 7.69Q11.85 4.03 11.63 3.75Q11.42 3.48 11.07 3.48ZM10.86 6.47L11.53 8.44L10.19 8.43L10.86 6.47ZM18.42 3.61L17.47 5.03L17.61 5.14Q17.97 4.83 20.48 4.96L20.48 4.96Q20.13 5.34 19.84 5.67L19.84 5.67L19.87 11.51Q20.12 12.56 20.98 12.74L20.98 12.74L22.13 11.70L22.03 11.46Q21.50 11.48 21.38 10.42L21.38 10.42L21.41 4.94L22.84 4.94L24.05 3.75L23.93 3.61L18.42 3.61ZM25.51 6.42L23.84 7.64L23.99 7.87Q24.50 7.56 24.45 8.50L24.45 8.50Q24.38 11.46 24.47 11.91Q24.55 12.37 25.13 12.71L25.13 12.71L26.58 11.46L26.58 11.29Q26.12 11.40 26.00 10.78Q25.87 10.17 25.95 8.27L25.95 8.27Q26.82 7.48 27.49 8.43L27.49 8.43L28.72 7.29Q27.95 6.25 27.32 6.49Q26.69 6.72 25.98 7.62L25.98 7.62Q26.04 6.77 25.51 6.42L25.51 6.42ZM31.71 6.49Q30.71 6.45 29.64 7.15Q28.57 7.85 29.19 9.02L29.19 9.02L30.71 8.13Q30.04 7.09 31.30 7.06Q32.56 7.03 32.40 8.76L32.40 8.76L30.19 8.80L28.49 10.71Q28.42 11.55 29.09 12.14Q29.76 12.73 30.41 12.70Q31.07 12.67 31.53 12.39Q32.00 12.10 32.45 11.57L32.45 11.57Q32.61 12.52 33.56 12.69L33.56 12.69L34.77 11.38L34.69 11.21Q34.14 11.33 33.99 10.58L33.99 10.58L34.00 8.16Q33.92 7.23 33.32 6.88Q32.72 6.53 31.71 6.49ZM29.89 9.88L32.40 9.88L32.40 11.11Q32.15 11.42 31.25 11.39Q30.36 11.35 29.63 10.12L29.63 10.12L29.89 9.88ZM37.83 6.62Q37.45 6.77 37.11 6.99Q36.78 7.21 36.42 7.49L36.42 7.49Q33.97 9.38 35.57 11.66L35.57 11.66Q36.02 12.21 36.48 12.45Q36.95 12.69 37.59 12.70Q38.24 12.70 38.92 12.07Q39.60 11.44 40.04 10.79L40.04 10.79L39.83 10.60Q39.66 10.82 39.38 11.07Q39.11 11.32 38.67 11.32Q38.24 11.33 37.73 10.99L37.73 10.99Q36.20 10.14 36.53 8.37L36.53 8.37Q36.72 7.62 37.57 7.85L37.57 7.85Q38.30 8.12 38.58 8.98L38.58 8.98L39.92 7.93Q39.90 7.33 39.47 7.00Q39.05 6.66 38.63 6.56Q38.21 6.47 37.83 6.62ZM41.79 2.95L40.52 3.94Q40.70 4.29 40.73 4.87L40.73 4.87Q40.65 11.47 40.77 11.98Q40.88 12.50 41.34 12.81L41.34 12.81L42.94 11.61L42.74 11.39Q42.38 11.69 42.29 11.14Q42.21 10.59 42.25 8.05L42.25 8.05Q42.88 7.52 43.34 7.58Q43.79 7.64 43.89 8.03Q43.99 8.42 43.65 8.77Q43.31 9.13 42.35 9.56L42.35 9.56L42.35 10.00Q42.92 9.33 43.66 10.86Q44.41 12.38 45.02 12.77L45.02 12.77L46.75 11.42L46.55 11.25Q46.04 11.61 45.32 10.46Q44.60 9.32 44.13 9.13L44.13 9.13Q44.99 8.69 45.31 8.18Q45.62 7.66 45.34 7.13Q45.06 6.60 44.56 6.54Q44.06 6.47 43.59 6.68Q43.11 6.89 42.23 7.59L42.23 7.59L42.23 3.80Q42.14 3.22 41.79 2.95L41.79 2.95ZM47.94 3.68L46.57 4.86Q47.21 5.30 47.54 5.91L47.54 5.91Q48.69 5.15 48.83 4.96Q48.97 4.76 48.75 4.31Q48.54 3.86 47.94 3.68L47.94 3.68ZM46.79 7.76Q47.37 7.43 47.17 9.23L47.17 9.23Q47.13 11.37 47.18 11.88Q47.23 12.39 47.79 12.72L47.79 12.72L49.15 11.45L49.16 11.27Q48.78 11.29 48.70 10.76Q48.61 10.23 48.65 8.94Q48.69 7.65 48.67 7.25Q48.65 6.85 48.30 6.45L48.30 6.45L46.68 7.57L46.79 7.76ZM52.40 6.52Q51.69 6.63 51.24 6.92Q50.78 7.21 50.47 7.52Q50.15 7.84 49.98 8.41Q49.82 8.98 50.27 9.39Q50.73 9.80 51.78 10.02Q52.83 10.24 53.18 10.55Q53.53 10.87 53.56 11.14Q53.59 11.42 53.34 11.52Q53.09 11.61 52.58 11.54Q52.08 11.46 51.61 11.22Q51.14 10.99 50.81 10.65Q50.48 10.32 50.76 10.02L50.76 10.02L50.60 9.93L49.54 10.84Q49.42 11.20 49.82 11.67Q50.22 12.14 50.83 12.40Q51.45 12.66 52.09 12.70Q52.73 12.74 53.38 12.32Q54.02 11.90 54.32 11.35Q54.62 10.81 54.56 10.26Q54.50 9.71 54.14 9.30Q53.78 8.88 52.60 8.55Q51.42 8.22 51.23 7.84Q51.04 7.45 51.53 7.38Q52.01 7.31 52.67 7.63Q53.33 7.96 53.11 8.25L53.11 8.25L53.20 8.35L54.22 7.38Q54.11 6.92 53.61 6.67Q53.11 6.41 52.40 6.52ZM57.11 3.70L55.87 4.68Q56.27 4.64 56.10 6.90L56.10 6.90L55.65 6.91L54.67 8.26L54.88 8.45Q55.20 8.09 56.05 8.13L56.05 8.13Q55.93 11.08 56.06 11.67Q56.18 12.25 56.86 12.72L56.86 12.72Q57.80 12.24 59.11 11.16L59.11 11.16L58.99 10.63Q57.52 11.38 57.43 10.75Q57.35 10.13 57.42 8.13L57.42 8.13L58.27 8.13L59.17 7.02L59.11 6.88L57.44 6.86L57.52 4.57Q57.44 3.98 57.11 3.70L57.11 3.70ZM61.93 6.49Q60.78 7.24 60.30 7.80Q59.83 8.35 59.64 8.92Q59.45 9.48 59.57 10.33Q59.70 11.18 60.57 11.96Q61.43 12.75 61.95 12.75Q62.47 12.76 63.59 11.74L63.59 11.74Q64.02 11.35 64.34 10.91Q64.67 10.47 64.82 9.67Q64.98 8.87 64.56 7.90L64.56 7.90Q63.53 6.30 61.93 6.49L61.93 6.49ZM61.70 7.70Q62.57 7.83 63.08 8.81Q63.58 9.79 63.41 10.78Q63.25 11.76 62.36 11.29Q61.48 10.81 61.04 10.00Q60.59 9.19 60.71 8.37Q60.83 7.56 61.70 7.70ZM66.87 6.42L65.19 7.64L65.35 7.87Q65.86 7.56 65.80 8.50L65.80 8.50Q65.73 11.46 65.82 11.91Q65.91 12.37 66.49 12.71L66.49 12.71L67.94 11.46L67.94 11.29Q67.48 11.40 67.35 10.78Q67.23 10.17 67.31 8.27L67.31 8.27Q68.18 7.48 68.84 8.43L68.84 8.43L70.08 7.29Q69.30 6.25 68.67 6.49Q68.04 6.72 67.33 7.62L67.33 7.62Q67.40 6.77 66.87 6.42L66.87 6.42ZM74.74 6.46L73.33 7.51Q73.64 7.48 73.60 8.18L73.60 8.18L73.60 11.11L73.26 11.49Q72.86 11.70 72.45 11.62Q72.04 11.55 71.91 10.94L71.91 10.94L71.92 7.57Q71.80 6.68 71.32 6.48L71.32 6.48L70.07 7.40Q70.48 7.68 70.45 8.52L70.45 8.52L70.44 11.02Q70.52 11.84 71.07 12.32Q71.62 12.80 72.42 12.73Q73.22 12.66 73.66 11.90L73.66 11.90Q73.77 13.30 73.64 13.91Q73.51 14.51 72.54 14.21Q71.57 13.90 70.57 12.96L70.57 12.96L69.49 14.21Q71.37 15.61 72.57 15.20Q73.77 14.80 74.44 14.31Q75.11 13.82 75.22 12.50L75.22 12.50L75.21 7.98Q75.28 6.99 74.74 6.46L74.74 6.46Z"></path></g><!----><g data-v-423bf9ae="" id="10a5b89b-2cc2-4bf3-a18a-5aa6a918bc87" transform="matrix(1.538093449326277,0,0,1.538093449326277,129.21577413608293,-7.821223458073078)" stroke="none" fill="#2563EB"><path d="M66.72 61.757H48.428v-1.124c0-1.19-.97-2.14-2.15-2.14h-3.91l-1.49-3.46h-12.75l-1.49 3.46h-3.92c-1.18 0-2.14.95-2.14 2.14v1.124H2.28a1 1 0 100 2h64.44a1 1 0 100-2zM7.938 53.033h53.13c2.44 0 4.43-1.99 4.43-4.43l-.08-39.65c0-.07-.01-.13-.02-.2-.43-2.04-2.26-3.51-4.34-3.51H7.928c-2.44 0-4.43 1.98-4.43 4.43v38.93a4.44 4.44 0 004.44 4.43zm29.15-4.04h-5.18c-.55 0-1-.45-1-1 0-.56.45-1 1-1h5.18c.55 0 1 .44 1 1 0 .55-.45 1-1 1zm-28.59-38.75h51.92l.08 33.8h-52v-33.8z"></path><path d="M14.45 30.298h-3a1 1 0 00-1 1v5.667a1 1 0 001 1h3a1 1 0 001-1v-5.667a1 1 0 00-1-1zM23.2 25.7h-3a1 1 0 00-1 1v10.265a1 1 0 001 1h3a1 1 0 001-1V26.7a1 1 0 00-1-1zM31.95 23.7h-3a1 1 0 00-1 1v12.265a1 1 0 001 1h3a1 1 0 001-1V24.7a1 1 0 00-1-1zM51.257 21.379a7.868 7.868 0 00-5.969 1.178l4.04 5.56 1.929-6.738zM53.151 22.028l-2.332 8.144 3.711 5.11a7.81 7.81 0 003.02-6.192 7.862 7.862 0 00-4.399-7.062zM43.777 23.881a7.858 7.858 0 00-1.976 5.21c0 4.342 3.532 7.874 7.875 7.874a7.83 7.83 0 003.128-.655l-3.89-5.356-5.137-7.073zM35.928 12.123l-.08.01-4.56.49c-.55.06-.95.55-.89 1.1s.56.95 1.11.89l1.84-.2-3.07 3.12-8.08-4.63a.996.996 0 00-1.15.11l-8.75 7.52a.999.999 0 101.3 1.52l8.22-7.07 8.13 4.67c.4.23.89.16 1.21-.17l3.61-3.66-.17 1.84c-.06.55.35 1.04.89 1.09h.1a1 1 0 001-.9l.44-4.64v-.1c0-.26-.1-.52-.29-.71-.22-.21-.51-.31-.81-.28z"></path></g><!----><g data-v-423bf9ae="" id="225e75d7-cd8e-451b-9ae8-233a51e14402" fill="#" transform="matrix(0.6364654237386276,0,0,0.6364654237386276,47.11433826438753,203.32716057815128)"><path d="M11.06 7.46L11.06 7.46Q11.06 8.33 10.58 9.01Q10.11 9.69 9.28 10.14L9.28 10.14Q9.81 10.50 10.13 11.03Q10.44 11.55 10.44 12.18L10.44 12.18Q10.44 12.94 9.99 13.67Q9.53 14.41 8.78 14.97Q8.02 15.54 7.06 15.89Q6.09 16.24 5.08 16.24L5.08 16.24Q3.99 16.24 3.17 15.83Q2.35 15.41 1.89 14.66L1.89 14.66Q2.03 14.24 2.26 13.62Q2.49 12.99 2.77 12.30Q3.05 11.61 3.34 10.92Q3.63 10.23 3.88 9.69L3.88 9.69Q4.41 8.50 4.83 7.71Q5.25 6.93 5.60 6.47L5.60 6.47Q4.83 6.71 4.20 7.01Q3.57 7.31 3.28 7.59L3.28 7.59Q3.15 7.50 3.02 7.34Q2.88 7.17 2.77 6.96Q2.65 6.76 2.57 6.55Q2.49 6.34 2.48 6.17L2.48 6.17Q2.84 5.92 3.42 5.69Q4.00 5.46 4.69 5.29Q5.38 5.12 6.10 5.03Q6.82 4.93 7.48 4.93L7.48 4.93Q9.16 4.93 10.11 5.60Q11.06 6.27 11.06 7.46ZM5.73 10.81L5.73 10.81Q5.46 10.68 5.24 10.43L5.24 10.43Q4.91 11.14 4.63 11.83Q4.34 12.52 4.12 13.10Q3.89 13.69 3.75 14.13Q3.61 14.56 3.60 14.76L3.60 14.76Q3.79 14.87 4.07 14.92Q4.34 14.98 4.75 14.98L4.75 14.98Q5.70 14.98 6.57 14.71Q7.43 14.45 8.09 13.99Q8.75 13.54 9.14 12.95Q9.53 12.36 9.53 11.72L9.53 11.72Q9.53 10.79 8.74 10.39L8.74 10.39Q7.64 10.84 6.27 10.84L6.27 10.84Q6.08 10.84 5.97 10.84Q5.87 10.84 5.73 10.81ZM8.44 5.95L8.44 5.95Q8.15 5.95 7.82 5.98Q7.49 6.02 7.13 6.09L7.13 6.09Q7.18 6.15 7.22 6.21Q7.25 6.27 7.28 6.34L7.28 6.34Q7.15 6.51 6.97 6.83Q6.79 7.15 6.57 7.58Q6.34 8.01 6.10 8.53Q5.85 9.04 5.60 9.59L5.60 9.59Q5.84 9.53 6.18 9.50Q6.52 9.46 6.86 9.46L6.86 9.46Q7.04 9.46 7.22 9.48Q7.39 9.49 7.56 9.52L7.56 9.52Q8.23 9.41 8.77 9.19Q9.31 8.97 9.70 8.69Q10.09 8.40 10.30 8.05Q10.51 7.70 10.51 7.31L10.51 7.31Q10.51 6.64 9.98 6.29Q9.45 5.95 8.44 5.95ZM23.86 5.75L23.86 5.75Q23.24 6.58 22.74 7.57Q22.23 8.57 21.88 9.61Q21.52 10.65 21.33 11.67Q21.14 12.68 21.14 13.57L21.14 13.57Q21.14 14.66 21.46 15.15Q21.78 15.64 22.57 15.64L22.57 15.64Q23.48 15.64 24.16 15.00Q24.85 14.36 25.45 13.24L25.45 13.24Q25.84 12.52 26.12 11.65Q26.40 10.78 26.58 9.86Q26.75 8.95 26.84 8.02Q26.92 7.08 26.92 6.23L26.92 6.23Q26.92 5.68 26.91 5.43Q26.89 5.18 26.87 5.03L26.87 5.03Q26.91 5.03 27.08 5.05Q27.24 5.08 27.46 5.12Q27.68 5.17 27.90 5.24Q28.11 5.31 28.27 5.39L28.27 5.39Q28.20 6.45 28.01 7.59Q27.82 8.72 27.51 9.83Q27.20 10.93 26.80 11.96Q26.39 12.98 25.89 13.79L25.89 13.79Q25.14 14.99 24.22 15.67Q23.30 16.35 22.04 16.35L22.04 16.35Q20.75 16.35 20.03 15.60Q19.32 14.85 19.32 13.33L19.32 13.33Q19.32 12.45 19.52 11.33Q19.71 10.22 20.04 9.07Q20.37 7.91 20.80 6.81Q21.24 5.71 21.71 4.84L21.71 4.84Q21.95 4.86 22.27 4.94Q22.60 5.03 22.90 5.16Q23.21 5.29 23.47 5.45Q23.73 5.61 23.86 5.75ZM35.66 14.38L35.66 14.38Q35.66 13.87 35.82 13.07Q35.98 12.26 36.24 11.33Q36.50 10.40 36.83 9.43Q37.17 8.46 37.52 7.60Q37.87 6.75 38.21 6.10Q38.54 5.46 38.81 5.18L38.81 5.18Q38.95 5.19 39.18 5.29Q39.41 5.38 39.65 5.50Q39.89 5.63 40.08 5.78Q40.28 5.92 40.33 6.05L40.33 6.05Q39.93 6.41 39.53 7.15Q39.13 7.88 38.76 8.82Q38.39 9.76 38.07 10.80Q37.74 11.84 37.51 12.82Q37.27 13.80 37.14 14.64Q37.00 15.48 37.00 16.00L37.00 16.00Q37.00 16.24 37.04 16.30L37.04 16.30Q36.74 16.28 36.60 16.19Q36.46 16.10 36.38 16.00Q36.30 15.89 36.24 15.79Q36.18 15.68 36.05 15.62L36.05 15.62Q35.95 15.58 35.88 15.43Q35.81 15.27 35.76 15.09Q35.71 14.90 35.69 14.70Q35.66 14.50 35.66 14.38ZM55.78 5.74L55.78 5.74Q55.82 5.98 55.84 6.07Q55.86 6.16 55.86 6.31L55.86 6.31Q55.86 6.78 55.66 7.18Q55.45 7.57 55.10 7.74L55.10 7.74Q54.82 7.36 54.42 7.09Q54.01 6.82 53.53 6.64Q53.05 6.47 52.53 6.38Q52.01 6.30 51.52 6.30L51.52 6.30Q51.03 6.30 50.60 6.38Q50.18 6.45 49.85 6.59Q49.52 6.72 49.33 6.92Q49.14 7.11 49.14 7.36L49.14 7.36Q49.18 7.67 49.52 7.99Q49.85 8.30 50.34 8.60Q50.83 8.90 51.43 9.20Q52.02 9.49 52.60 9.76L52.60 9.76Q53.31 10.09 53.83 10.38Q54.35 10.67 54.68 11.01Q55.02 11.35 55.19 11.79Q55.36 12.22 55.36 12.84L55.36 12.84Q55.36 13.55 55.12 14.18Q54.88 14.80 54.43 15.26Q53.97 15.72 53.33 15.98Q52.68 16.24 51.88 16.24L51.88 16.24Q51.10 16.24 50.19 16.00Q49.28 15.76 48.49 15.35Q47.70 14.94 47.17 14.40Q46.65 13.86 46.65 13.26L46.65 13.26Q46.65 12.98 46.81 12.54Q46.97 12.11 47.39 11.63L47.39 11.63Q47.43 12.05 47.85 12.63Q48.26 13.20 49.08 13.69L49.08 13.69Q49.85 14.14 50.67 14.34Q51.49 14.55 52.21 14.55L52.21 14.55Q52.99 14.55 53.48 14.35Q53.97 14.15 54.25 13.88Q54.53 13.61 54.64 13.33Q54.75 13.05 54.77 12.88L54.77 12.88Q54.75 12.60 54.51 12.34Q54.26 12.08 53.85 11.84Q53.44 11.59 52.89 11.34Q52.35 11.09 51.76 10.84L51.76 10.84Q50.88 10.44 50.24 10.10Q49.60 9.76 49.19 9.40Q48.78 9.04 48.59 8.65Q48.40 8.26 48.40 7.76L48.40 7.76Q48.40 6.97 48.87 6.27Q49.35 5.57 50.25 5.21L50.25 5.21Q50.69 5.01 51.21 4.93Q51.72 4.84 52.21 4.84L52.21 4.84Q53.13 4.84 54.01 5.10Q54.89 5.35 55.78 5.74ZM64.72 16.24L64.72 16.24Q63.92 16.00 63.64 15.79Q63.36 15.57 63.36 15.19L63.36 15.19Q63.36 14.77 63.56 14.01Q63.76 13.24 64.07 12.31Q64.39 11.37 64.79 10.35Q65.20 9.32 65.62 8.39Q66.04 7.45 66.44 6.67Q66.84 5.89 67.14 5.46L67.14 5.46L67.05 4.87Q67.24 4.87 67.59 4.97Q67.94 5.07 68.30 5.21Q68.66 5.35 68.93 5.49Q69.20 5.64 69.23 5.74L69.23 5.74Q69.16 6.08 69.12 6.76Q69.08 7.43 69.08 8.20L69.08 8.20Q69.08 9.73 69.20 11.19Q69.31 12.66 69.75 14.17L69.75 14.17Q69.97 13.05 70.23 11.94Q70.49 10.82 70.77 9.81Q71.05 8.79 71.33 7.92Q71.61 7.06 71.87 6.40Q72.13 5.75 72.35 5.38Q72.58 5.01 72.76 4.98L72.76 4.98Q72.91 5.01 73.09 5.10Q73.28 5.19 73.44 5.32Q73.61 5.45 73.75 5.60Q73.89 5.75 73.98 5.91L73.98 5.91Q73.53 6.09 73.09 6.76Q72.65 7.43 72.25 8.39Q71.85 9.35 71.51 10.47Q71.16 11.59 70.90 12.68Q70.64 13.76 70.50 14.69Q70.35 15.61 70.34 16.17L70.34 16.17Q70.34 16.20 70.35 16.21L70.35 16.21Q70.31 16.23 70.26 16.23Q70.21 16.23 70.17 16.23L70.17 16.23Q69.52 16.23 69.03 16.07Q68.53 15.90 68.38 15.61L68.38 15.61Q68.08 14.43 67.89 13.34Q67.69 12.25 67.56 11.16Q67.42 10.07 67.35 8.95Q67.27 7.84 67.23 6.62L67.23 6.62Q66.96 7.04 66.67 7.72Q66.37 8.40 66.09 9.21Q65.81 10.02 65.56 10.92Q65.30 11.82 65.10 12.67Q64.90 13.52 64.79 14.29Q64.68 15.05 64.68 15.61L64.68 15.61Q64.68 15.90 64.69 16.03Q64.69 16.16 64.72 16.24ZM85.82 9.21L85.82 9.21Q86.28 9.21 86.54 9.46Q86.80 9.72 86.80 10.16L86.80 10.16Q86.80 10.28 86.78 10.39Q86.76 10.51 86.73 10.60L86.73 10.60Q86.55 10.57 86.32 10.55Q86.10 10.53 85.79 10.53L85.79 10.53Q85.19 10.53 84.57 10.63Q83.96 10.74 83.40 10.81L83.40 10.81Q83.08 11.55 82.81 12.24Q82.54 12.94 82.36 13.51Q82.17 14.08 82.06 14.50Q81.96 14.92 81.94 15.13L81.94 15.13Q83.08 14.90 84.23 14.73Q85.39 14.56 86.66 14.48L86.66 14.48Q86.81 14.71 86.92 14.99Q87.02 15.27 87.02 15.60L87.02 15.60Q87.02 15.68 87.02 15.78Q87.02 15.88 87.00 15.97L87.00 15.97Q86.60 15.96 86.17 15.95Q85.74 15.95 85.04 15.95L85.04 15.95Q84.57 15.95 84.16 15.97Q83.75 15.99 83.33 16.03Q82.91 16.07 82.44 16.14Q81.97 16.21 81.38 16.31L81.38 16.31Q80.74 16.06 80.14 15.08L80.14 15.08Q80.37 14.57 80.80 13.54Q81.23 12.52 81.89 10.79L81.89 10.79Q81.26 10.60 81.06 10.09L81.06 10.09Q81.13 10.02 81.47 9.92Q81.80 9.81 82.29 9.70L82.29 9.70Q82.50 9.16 82.65 8.75Q82.80 8.34 82.91 7.99Q83.02 7.63 83.11 7.29Q83.20 6.94 83.29 6.54L83.29 6.54Q82.80 6.51 82.52 6.27Q82.24 6.02 82.24 5.63L82.24 5.63Q82.24 5.52 82.27 5.36Q82.31 5.21 82.35 5.10L82.35 5.10Q82.63 5.14 82.89 5.15Q83.15 5.17 83.57 5.17L83.57 5.17Q84.45 5.17 85.22 5.12Q85.99 5.07 86.61 5.01Q87.23 4.96 87.68 4.91Q88.13 4.86 88.37 4.86L88.37 4.86Q88.69 4.86 88.94 5.19Q89.19 5.53 89.32 6.15L89.32 6.15Q88.89 6.10 88.61 6.09Q88.34 6.08 88.13 6.08L88.13 6.08Q87.36 6.08 86.72 6.15Q86.09 6.23 85.50 6.31L85.50 6.31Q85.41 6.44 85.31 6.64Q85.20 6.83 85.04 7.18Q84.87 7.53 84.62 8.06Q84.38 8.60 84.03 9.39L84.03 9.39Q84.56 9.31 85.03 9.26Q85.50 9.21 85.82 9.21ZM104.69 5.74L104.69 5.74Q104.73 5.98 104.76 6.07Q104.78 6.16 104.78 6.31L104.78 6.31Q104.78 6.78 104.57 7.18Q104.37 7.57 104.02 7.74L104.02 7.74Q103.74 7.36 103.33 7.09Q102.93 6.82 102.45 6.64Q101.96 6.47 101.44 6.38Q100.93 6.30 100.44 6.30L100.44 6.30Q99.95 6.30 99.52 6.38Q99.09 6.45 98.76 6.59Q98.43 6.72 98.25 6.92Q98.06 7.11 98.06 7.36L98.06 7.36Q98.10 7.67 98.43 7.99Q98.77 8.30 99.26 8.60Q99.75 8.90 100.34 9.20Q100.94 9.49 101.51 9.76L101.51 9.76Q102.23 10.09 102.75 10.38Q103.26 10.67 103.60 11.01Q103.94 11.35 104.10 11.79Q104.27 12.22 104.27 12.84L104.27 12.84Q104.27 13.55 104.03 14.18Q103.80 14.80 103.34 15.26Q102.89 15.72 102.24 15.98Q101.60 16.24 100.80 16.24L100.80 16.24Q100.02 16.24 99.11 16.00Q98.20 15.76 97.41 15.35Q96.61 14.94 96.09 14.40Q95.56 13.86 95.56 13.26L95.56 13.26Q95.56 12.98 95.73 12.54Q95.89 12.11 96.31 11.63L96.31 11.63Q96.35 12.05 96.76 12.63Q97.17 13.20 98 13.69L98 13.69Q98.77 14.14 99.59 14.34Q100.41 14.55 101.12 14.55L101.12 14.55Q101.91 14.55 102.40 14.35Q102.89 14.15 103.17 13.88Q103.45 13.61 103.56 13.33Q103.67 13.05 103.68 12.88L103.68 12.88Q103.67 12.60 103.43 12.34Q103.18 12.08 102.77 11.84Q102.35 11.59 101.81 11.34Q101.26 11.09 100.67 10.84L100.67 10.84Q99.79 10.44 99.16 10.10Q98.52 9.76 98.11 9.40Q97.69 9.04 97.50 8.65Q97.31 8.26 97.31 7.76L97.31 7.76Q97.31 6.97 97.79 6.27Q98.27 5.57 99.16 5.21L99.16 5.21Q99.61 5.01 100.12 4.93Q100.63 4.84 101.12 4.84L101.12 4.84Q102.05 4.84 102.93 5.10Q103.81 5.35 104.69 5.74ZM121.52 5.74L121.52 5.74Q121.56 5.98 121.58 6.07Q121.60 6.16 121.60 6.31L121.60 6.31Q121.60 6.78 121.40 7.18Q121.20 7.57 120.85 7.74L120.85 7.74Q120.57 7.36 120.16 7.09Q119.76 6.82 119.27 6.64Q118.79 6.47 118.27 6.38Q117.75 6.30 117.26 6.30L117.26 6.30Q116.77 6.30 116.35 6.38Q115.92 6.45 115.59 6.59Q115.26 6.72 115.07 6.92Q114.88 7.11 114.88 7.36L114.88 7.36Q114.93 7.67 115.26 7.99Q115.60 8.30 116.09 8.60Q116.58 8.90 117.17 9.20Q117.77 9.49 118.34 9.76L118.34 9.76Q119.06 10.09 119.57 10.38Q120.09 10.67 120.43 11.01Q120.76 11.35 120.93 11.79Q121.10 12.22 121.10 12.84L121.10 12.84Q121.10 13.55 120.86 14.18Q120.62 14.80 120.17 15.26Q119.71 15.72 119.07 15.98Q118.43 16.24 117.63 16.24L117.63 16.24Q116.84 16.24 115.93 16.00Q115.02 15.76 114.23 15.35Q113.44 14.94 112.92 14.40Q112.39 13.86 112.39 13.26L112.39 13.26Q112.39 12.98 112.55 12.54Q112.71 12.11 113.13 11.63L113.13 11.63Q113.18 12.05 113.59 12.63Q114.00 13.20 114.83 13.69L114.83 13.69Q115.60 14.14 116.42 14.34Q117.24 14.55 117.95 14.55L117.95 14.55Q118.73 14.55 119.22 14.35Q119.71 14.15 119.99 13.88Q120.27 13.61 120.39 13.33Q120.50 13.05 120.51 12.88L120.51 12.88Q120.50 12.60 120.25 12.34Q120.01 12.08 119.60 11.84Q119.18 11.59 118.64 11.34Q118.09 11.09 117.50 10.84L117.50 10.84Q116.62 10.44 115.98 10.10Q115.35 9.76 114.93 9.40Q114.52 9.04 114.33 8.65Q114.14 8.26 114.14 7.76L114.14 7.76Q114.14 6.97 114.62 6.27Q115.09 5.57 115.99 5.21L115.99 5.21Q116.44 5.01 116.95 4.93Q117.46 4.84 117.95 4.84L117.95 4.84Q118.87 4.84 119.76 5.10Q120.64 5.35 121.52 5.74ZM139.97 14.38L139.97 14.38Q139.97 13.87 140.13 13.07Q140.29 12.26 140.55 11.33Q140.81 10.40 141.15 9.43Q141.48 8.46 141.83 7.60Q142.18 6.75 142.52 6.10Q142.86 5.46 143.12 5.18L143.12 5.18Q143.26 5.19 143.49 5.29Q143.72 5.38 143.96 5.50Q144.20 5.63 144.40 5.78Q144.59 5.92 144.65 6.05L144.65 6.05Q144.24 6.41 143.84 7.15Q143.44 7.88 143.07 8.82Q142.70 9.76 142.38 10.80Q142.06 11.84 141.82 12.82Q141.58 13.80 141.45 14.64Q141.32 15.48 141.32 16.00L141.32 16.00Q141.32 16.24 141.36 16.30L141.36 16.30Q141.05 16.28 140.91 16.19Q140.77 16.10 140.69 16.00Q140.62 15.89 140.55 15.79Q140.49 15.68 140.36 15.62L140.36 15.62Q140.27 15.58 140.20 15.43Q140.13 15.27 140.08 15.09Q140.03 14.90 140 14.70Q139.97 14.50 139.97 14.38ZM152.21 16.24L152.21 16.24Q151.41 16.00 151.13 15.79Q150.85 15.57 150.85 15.19L150.85 15.19Q150.85 14.77 151.05 14.01Q151.24 13.24 151.56 12.31Q151.87 11.37 152.28 10.35Q152.68 9.32 153.10 8.39Q153.52 7.45 153.92 6.67Q154.32 5.89 154.63 5.46L154.63 5.46L154.53 4.87Q154.73 4.87 155.08 4.97Q155.43 5.07 155.78 5.21Q156.14 5.35 156.41 5.49Q156.69 5.64 156.72 5.74L156.72 5.74Q156.65 6.08 156.60 6.76Q156.56 7.43 156.56 8.20L156.56 8.20Q156.56 9.73 156.68 11.19Q156.80 12.66 157.23 14.17L157.23 14.17Q157.46 13.05 157.72 11.94Q157.98 10.82 158.26 9.81Q158.54 8.79 158.82 7.92Q159.10 7.06 159.35 6.40Q159.61 5.75 159.84 5.38Q160.06 5.01 160.24 4.98L160.24 4.98Q160.40 5.01 160.58 5.10Q160.76 5.19 160.93 5.32Q161.10 5.45 161.24 5.60Q161.38 5.75 161.46 5.91L161.46 5.91Q161.01 6.09 160.57 6.76Q160.13 7.43 159.73 8.39Q159.33 9.35 158.99 10.47Q158.65 11.59 158.39 12.68Q158.13 13.76 157.98 14.69Q157.84 15.61 157.82 16.17L157.82 16.17Q157.82 16.20 157.84 16.21L157.84 16.21Q157.79 16.23 157.75 16.23Q157.70 16.23 157.65 16.23L157.65 16.23Q157.01 16.23 156.51 16.07Q156.02 15.90 155.86 15.61L155.86 15.61Q155.57 14.43 155.37 13.34Q155.18 12.25 155.04 11.16Q154.91 10.07 154.83 8.95Q154.76 7.84 154.71 6.62L154.71 6.62Q154.45 7.04 154.15 7.72Q153.86 8.40 153.58 9.21Q153.30 10.02 153.04 10.92Q152.78 11.82 152.59 12.67Q152.39 13.52 152.28 14.29Q152.17 15.05 152.17 15.61L152.17 15.61Q152.17 15.90 152.17 16.03Q152.18 16.16 152.21 16.24ZM171.98 16.07L171.98 16.07Q171.65 16.24 171.29 16.24L171.29 16.24Q170.84 16.18 170.43 16.02Q170.02 15.85 169.82 15.61L169.82 15.61Q169.71 14.92 169.64 14.35Q169.57 13.78 169.53 13.27Q169.48 12.75 169.47 12.29Q169.46 11.82 169.46 11.34L169.46 11.34Q169.46 10.71 169.47 10.01Q169.48 9.31 169.51 8.52Q169.53 7.73 169.54 6.82Q169.55 5.92 169.55 4.86L169.55 4.86Q169.74 4.86 170.10 4.96Q170.46 5.07 170.82 5.21Q171.18 5.35 171.46 5.49Q171.74 5.64 171.77 5.74L171.77 5.74Q171.63 6.13 171.52 6.76Q171.42 7.39 171.35 8.16Q171.29 8.93 171.26 9.79Q171.23 10.64 171.23 11.48L171.23 11.48Q171.23 12.11 171.25 12.61Q171.26 13.10 171.28 13.50Q171.30 13.90 171.35 14.25Q171.39 14.59 171.44 14.92L171.44 14.92Q171.84 13.73 172.31 12.54Q172.77 11.35 173.27 10.25Q173.77 9.16 174.26 8.20Q174.75 7.25 175.19 6.54Q175.63 5.84 175.98 5.43Q176.33 5.01 176.55 4.98L176.55 4.98Q176.71 5.01 176.88 5.10Q177.06 5.19 177.21 5.32Q177.37 5.45 177.49 5.60Q177.62 5.75 177.69 5.91L177.69 5.91Q177.17 6.09 176.58 6.76Q175.98 7.43 175.38 8.38Q174.78 9.32 174.21 10.44Q173.64 11.55 173.19 12.61Q172.73 13.68 172.41 14.60Q172.09 15.53 171.98 16.07ZM188.94 9.21L188.94 9.21Q189.41 9.21 189.67 9.46Q189.92 9.72 189.92 10.16L189.92 10.16Q189.92 10.28 189.90 10.39Q189.88 10.51 189.85 10.60L189.85 10.60Q189.67 10.57 189.45 10.55Q189.22 10.53 188.92 10.53L188.92 10.53Q188.31 10.53 187.70 10.63Q187.08 10.74 186.52 10.81L186.52 10.81Q186.20 11.55 185.93 12.24Q185.67 12.94 185.48 13.51Q185.29 14.08 185.19 14.50Q185.08 14.92 185.07 15.13L185.07 15.13Q186.20 14.90 187.36 14.73Q188.51 14.56 189.78 14.48L189.78 14.48Q189.94 14.71 190.04 14.99Q190.15 15.27 190.15 15.60L190.15 15.60Q190.15 15.68 190.15 15.78Q190.15 15.88 190.12 15.97L190.12 15.97Q189.73 15.96 189.29 15.95Q188.86 15.95 188.16 15.95L188.16 15.95Q187.70 15.95 187.29 15.97Q186.87 15.99 186.45 16.03Q186.03 16.07 185.56 16.14Q185.09 16.21 184.51 16.31L184.51 16.31Q183.86 16.06 183.26 15.08L183.26 15.08Q183.50 14.57 183.93 13.54Q184.35 12.52 185.01 10.79L185.01 10.79Q184.38 10.60 184.18 10.09L184.18 10.09Q184.25 10.02 184.59 9.92Q184.93 9.81 185.42 9.70L185.42 9.70Q185.63 9.16 185.77 8.75Q185.92 8.34 186.03 7.99Q186.14 7.63 186.24 7.29Q186.33 6.94 186.41 6.54L186.41 6.54Q185.92 6.51 185.64 6.27Q185.36 6.02 185.36 5.63L185.36 5.63Q185.36 5.52 185.40 5.36Q185.43 5.21 185.47 5.10L185.47 5.10Q185.75 5.14 186.01 5.15Q186.27 5.17 186.69 5.17L186.69 5.17Q187.57 5.17 188.34 5.12Q189.11 5.07 189.74 5.01Q190.36 4.96 190.81 4.91Q191.25 4.86 191.49 4.86L191.49 4.86Q191.81 4.86 192.07 5.19Q192.32 5.53 192.44 6.15L192.44 6.15Q192.01 6.10 191.74 6.09Q191.46 6.08 191.25 6.08L191.25 6.08Q190.48 6.08 189.85 6.15Q189.21 6.23 188.62 6.31L188.62 6.31Q188.54 6.44 188.43 6.64Q188.33 6.83 188.16 7.18Q187.99 7.53 187.75 8.06Q187.50 8.60 187.15 9.39L187.15 9.39Q187.68 9.31 188.15 9.26Q188.62 9.21 188.94 9.21ZM199.93 16.24L199.93 16.24Q199.14 16.00 198.86 15.79Q198.58 15.57 198.58 15.19L198.58 15.19Q198.58 14.77 198.77 14.01Q198.97 13.24 199.28 12.31Q199.60 11.37 200.00 10.35Q200.41 9.32 200.83 8.39Q201.25 7.45 201.65 6.67Q202.05 5.89 202.36 5.46L202.36 5.46L202.26 4.87Q202.45 4.87 202.80 4.97Q203.15 5.07 203.51 5.21Q203.87 5.35 204.14 5.49Q204.41 5.64 204.44 5.74L204.44 5.74Q204.37 6.08 204.33 6.76Q204.29 7.43 204.29 8.20L204.29 8.20Q204.29 9.73 204.41 11.19Q204.53 12.66 204.96 14.17L204.96 14.17Q205.18 13.05 205.44 11.94Q205.70 10.82 205.98 9.81Q206.26 8.79 206.54 7.92Q206.82 7.06 207.08 6.40Q207.34 5.75 207.56 5.38Q207.79 5.01 207.97 4.98L207.97 4.98Q208.12 5.01 208.31 5.10Q208.49 5.19 208.66 5.32Q208.82 5.45 208.96 5.60Q209.10 5.75 209.19 5.91L209.19 5.91Q208.74 6.09 208.30 6.76Q207.86 7.43 207.46 8.39Q207.06 9.35 206.72 10.47Q206.37 11.59 206.12 12.68Q205.86 13.76 205.71 14.69Q205.56 15.61 205.55 16.17L205.55 16.17Q205.55 16.20 205.56 16.21L205.56 16.21Q205.52 16.23 205.47 16.23Q205.42 16.23 205.38 16.23L205.38 16.23Q204.74 16.23 204.24 16.07Q203.74 15.90 203.59 15.61L203.59 15.61Q203.29 14.43 203.10 13.34Q202.90 12.25 202.77 11.16Q202.64 10.07 202.56 8.95Q202.48 7.84 202.44 6.62L202.44 6.62Q202.17 7.04 201.88 7.72Q201.59 8.40 201.31 9.21Q201.03 10.02 200.77 10.92Q200.51 11.82 200.31 12.67Q200.12 13.52 200.00 14.29Q199.89 15.05 199.89 15.61L199.89 15.61Q199.89 15.90 199.90 16.03Q199.91 16.16 199.93 16.24ZM218.02 6.69L218.02 6.69Q217.46 6.69 217.16 6.38Q216.86 6.06 216.86 5.61L216.86 5.61Q216.86 5.50 216.90 5.35Q216.93 5.19 216.99 5.08L216.99 5.08Q217.17 5.17 217.53 5.20Q217.88 5.24 218.36 5.24L218.36 5.24Q219.07 5.24 219.98 5.17Q220.88 5.11 221.70 5.04Q222.53 4.97 223.16 4.91Q223.79 4.84 223.97 4.84L223.97 4.84Q224.49 4.84 224.72 5.23Q224.95 5.61 225.06 6.26L225.06 6.26Q224.70 6.23 224.34 6.21Q223.99 6.19 223.73 6.19L223.73 6.19Q223.29 6.19 222.83 6.22Q222.38 6.24 221.91 6.30L221.91 6.30Q221.72 6.71 221.48 7.26Q221.24 7.81 221.01 8.41Q220.78 9.02 220.57 9.61Q220.36 10.21 220.21 10.68L220.21 10.68Q219.90 11.61 219.67 12.39Q219.44 13.17 219.26 13.85Q219.09 14.53 218.96 15.15Q218.83 15.76 218.74 16.35L218.74 16.35Q217.80 16.21 217.17 15.18L217.17 15.18Q217.28 14.74 217.44 14.23Q217.60 13.72 217.82 13.07Q218.04 12.42 218.33 11.59Q218.62 10.77 219.00 9.72L219.00 9.72Q219.14 9.32 219.30 8.90Q219.45 8.47 219.60 8.05Q219.74 7.63 219.86 7.24Q219.98 6.85 220.07 6.52L220.07 6.52Q219.48 6.59 218.95 6.64Q218.43 6.69 218.02 6.69ZM236.94 4.98L236.94 4.98Q237.20 5.10 237.48 5.27Q237.76 5.45 238.00 5.63Q238.24 5.81 238.40 5.98Q238.56 6.16 238.57 6.27L238.57 6.27Q238.34 6.22 238.10 6.20Q237.86 6.17 237.66 6.17L237.66 6.17Q237.03 6.17 236.41 6.48Q235.79 6.79 235.23 7.32Q234.67 7.85 234.19 8.57Q233.72 9.28 233.37 10.09Q233.03 10.91 232.83 11.77Q232.64 12.64 232.64 13.48L232.64 13.48Q232.64 14.57 233.00 15.11Q233.37 15.64 234.07 15.64L234.07 15.64Q234.40 15.64 234.79 15.51Q235.19 15.37 235.59 15.13Q236.00 14.90 236.39 14.56Q236.78 14.22 237.12 13.82L237.12 13.82Q237.61 13.23 238.00 12.48Q238.39 11.73 238.67 10.89Q238.94 10.05 239.09 9.16Q239.23 8.27 239.23 7.42L239.23 7.42Q239.23 7.08 239.22 6.85Q239.20 6.62 239.18 6.46Q239.16 6.30 239.15 6.20Q239.13 6.10 239.12 6.03L239.12 6.03Q239.29 6.12 239.49 6.24Q239.69 6.36 239.87 6.59Q240.04 6.82 240.16 7.20Q240.28 7.57 240.28 8.18L240.28 8.18Q240.28 9.16 240.05 10.10Q239.82 11.05 239.41 11.90Q238.99 12.75 238.43 13.50Q237.87 14.24 237.23 14.80L237.23 14.80Q236.39 15.54 235.44 15.95Q234.49 16.35 233.60 16.35L233.60 16.35Q232.32 16.35 231.64 15.53Q230.96 14.71 230.96 13.12L230.96 13.12Q230.96 12.26 231.15 11.31Q231.34 10.36 231.68 9.44Q232.02 8.51 232.50 7.68Q232.97 6.85 233.54 6.21Q234.11 5.57 234.76 5.19Q235.41 4.82 236.10 4.82L236.10 4.82Q236.32 4.82 236.52 4.85Q236.71 4.89 236.94 4.98ZM257.12 7.46L257.12 7.46Q257.12 8.13 256.82 8.73Q256.52 9.32 255.99 9.79Q255.46 10.26 254.74 10.58Q254.03 10.91 253.19 11.02L253.19 11.02Q253.40 11.65 253.70 12.31Q254.00 12.98 254.35 13.59Q254.70 14.21 255.08 14.73Q255.46 15.25 255.82 15.58L255.82 15.58Q255.75 15.72 255.62 15.86Q255.49 16.00 255.31 16.12Q255.14 16.24 254.95 16.32Q254.76 16.39 254.59 16.39L254.59 16.39Q254.28 16.39 254.00 16.10Q253.72 15.81 253.44 15.17Q253.15 14.53 252.83 13.52Q252.52 12.50 252.14 11.07L252.14 11.07Q251.99 11.07 251.83 11.07Q251.68 11.07 251.59 11.05L251.59 11.05Q251.50 10.99 251.38 10.85L251.38 10.85Q251.01 11.66 250.71 12.38Q250.42 13.09 250.19 13.76Q249.96 14.42 249.78 15.04Q249.61 15.67 249.48 16.31L249.48 16.31Q249.00 16.20 248.65 15.90Q248.30 15.61 248.00 15.08L248.00 15.08Q248.05 14.95 248.12 14.83Q248.18 14.71 248.28 14.50Q248.37 14.28 248.52 13.94Q248.67 13.61 248.91 13.05Q249.16 12.49 249.50 11.68Q249.84 10.86 250.33 9.70L250.33 9.70Q250.56 9.18 250.72 8.79Q250.88 8.40 251.01 8.04Q251.13 7.69 251.24 7.33Q251.34 6.97 251.45 6.51L251.45 6.51Q250.81 6.73 250.26 7.01Q249.70 7.28 249.34 7.59L249.34 7.59Q249.21 7.50 249.08 7.34Q248.95 7.17 248.84 6.96Q248.72 6.76 248.64 6.55Q248.56 6.34 248.54 6.17L248.54 6.17Q248.96 5.89 249.57 5.66Q250.18 5.42 250.87 5.24Q251.55 5.07 252.27 4.97Q252.98 4.87 253.60 4.87L253.60 4.87Q255.28 4.87 256.20 5.56Q257.12 6.26 257.12 7.46ZM253.54 6.02L253.71 6.29Q253.61 6.41 253.40 6.79Q253.19 7.17 252.92 7.69Q252.64 8.22 252.34 8.83Q252.04 9.45 251.76 10.05L251.76 10.05Q252.81 10.05 253.69 9.86Q254.58 9.66 255.22 9.30Q255.86 8.95 256.22 8.46Q256.58 7.98 256.58 7.39L256.58 7.39Q256.58 6.69 256.07 6.32Q255.57 5.95 254.52 5.95L254.52 5.95Q254.28 5.95 254.04 5.97Q253.81 5.99 253.54 6.02L253.54 6.02ZM268.70 10.35L268.70 10.35Q269.75 9.20 270.59 7.91Q271.42 6.62 272.13 5.01L272.13 5.01Q272.50 5.05 272.83 5.21Q273.17 5.36 273.36 5.56L273.36 5.56Q272.59 6.48 271.97 7.24Q271.35 7.99 270.83 8.66Q270.31 9.32 269.87 9.93Q269.43 10.54 269.01 11.16L269.01 11.16Q268.80 11.87 268.62 12.60Q268.44 13.33 268.30 13.99Q268.16 14.66 268.08 15.22Q268.00 15.79 268.00 16.20L268.00 16.20Q267.85 16.20 267.51 16.14Q267.18 16.07 266.83 15.99Q266.48 15.90 266.19 15.82Q265.90 15.74 265.85 15.68L265.85 15.68Q266.07 15.30 266.29 14.75Q266.50 14.20 266.71 13.59Q266.92 12.98 267.12 12.36Q267.32 11.73 267.48 11.20L267.48 11.20Q267.13 10.11 266.81 9.15Q266.48 8.19 266.17 7.41Q265.86 6.64 265.58 6.08Q265.30 5.52 265.05 5.22L265.05 5.22Q265.19 5.17 265.48 5.11Q265.76 5.05 266.11 5.00Q266.45 4.94 266.81 4.91Q267.16 4.87 267.44 4.86L267.44 4.86Q267.44 5.21 267.51 5.71Q267.57 6.22 267.67 6.79Q267.78 7.36 267.92 7.95Q268.06 8.54 268.20 9.03Q268.34 9.52 268.47 9.88Q268.60 10.23 268.70 10.35ZM298.58 5.74L298.58 5.74Q298.62 5.98 298.64 6.07Q298.66 6.16 298.66 6.31L298.66 6.31Q298.66 6.78 298.46 7.18Q298.26 7.57 297.91 7.74L297.91 7.74Q297.63 7.36 297.22 7.09Q296.81 6.82 296.33 6.64Q295.85 6.47 295.33 6.38Q294.81 6.30 294.32 6.30L294.32 6.30Q293.83 6.30 293.41 6.38Q292.98 6.45 292.65 6.59Q292.32 6.72 292.13 6.92Q291.94 7.11 291.94 7.36L291.94 7.36Q291.98 7.67 292.32 7.99Q292.66 8.30 293.15 8.60Q293.64 8.90 294.23 9.20Q294.83 9.49 295.40 9.76L295.40 9.76Q296.11 10.09 296.63 10.38Q297.15 10.67 297.49 11.01Q297.82 11.35 297.99 11.79Q298.16 12.22 298.16 12.84L298.16 12.84Q298.16 13.55 297.92 14.18Q297.68 14.80 297.23 15.26Q296.77 15.72 296.13 15.98Q295.48 16.24 294.69 16.24L294.69 16.24Q293.90 16.24 292.99 16.00Q292.08 15.76 291.29 15.35Q290.50 14.94 289.98 14.40Q289.45 13.86 289.45 13.26L289.45 13.26Q289.45 12.98 289.61 12.54Q289.77 12.11 290.19 11.63L290.19 11.63Q290.23 12.05 290.65 12.63Q291.06 13.20 291.89 13.69L291.89 13.69Q292.66 14.14 293.48 14.34Q294.29 14.55 295.01 14.55L295.01 14.55Q295.79 14.55 296.28 14.35Q296.77 14.15 297.05 13.88Q297.33 13.61 297.44 13.33Q297.56 13.05 297.57 12.88L297.57 12.88Q297.56 12.60 297.31 12.34Q297.07 12.08 296.65 11.84Q296.24 11.59 295.69 11.34Q295.15 11.09 294.56 10.84L294.56 10.84Q293.68 10.44 293.04 10.10Q292.40 9.76 291.99 9.40Q291.58 9.04 291.39 8.65Q291.20 8.26 291.20 7.76L291.20 7.76Q291.20 6.97 291.68 6.27Q292.15 5.57 293.05 5.21L293.05 5.21Q293.50 5.01 294.01 4.93Q294.52 4.84 295.01 4.84L295.01 4.84Q295.93 4.84 296.81 5.10Q297.70 5.35 298.58 5.74ZM306.70 14.38L306.70 14.38Q306.70 13.87 306.86 13.07Q307.02 12.26 307.28 11.33Q307.54 10.40 307.87 9.43Q308.21 8.46 308.56 7.60Q308.91 6.75 309.25 6.10Q309.58 5.46 309.85 5.18L309.85 5.18Q309.99 5.19 310.22 5.29Q310.45 5.38 310.69 5.50Q310.93 5.63 311.12 5.78Q311.32 5.92 311.37 6.05L311.37 6.05Q310.97 6.41 310.57 7.15Q310.17 7.88 309.80 8.82Q309.43 9.76 309.11 10.80Q308.78 11.84 308.55 12.82Q308.31 13.80 308.18 14.64Q308.04 15.48 308.04 16.00L308.04 16.00Q308.04 16.24 308.08 16.30L308.08 16.30Q307.78 16.28 307.64 16.19Q307.50 16.10 307.42 16.00Q307.34 15.89 307.28 15.79Q307.22 15.68 307.09 15.62L307.09 15.62Q306.99 15.58 306.92 15.43Q306.85 15.27 306.80 15.09Q306.75 14.90 306.73 14.70Q306.70 14.50 306.70 14.38ZM323.47 16.21L323.47 16.21Q323.44 16.23 323.41 16.23Q323.39 16.23 323.30 16.23L323.30 16.23Q323.11 16.23 322.85 16.16Q322.59 16.10 322.34 16.01Q322.10 15.92 321.92 15.81Q321.75 15.69 321.71 15.61L321.71 15.61Q321.69 15.41 321.69 15.20Q321.69 14.99 321.69 14.80L321.69 14.80Q321.69 13.23 321.92 11.52Q322.15 9.81 322.69 7.83L322.69 7.83Q322.74 7.63 322.81 7.33Q322.87 7.03 322.94 6.68L322.94 6.68Q322.60 6.94 322.14 7.53Q321.68 8.11 321.17 8.90Q320.66 9.69 320.15 10.63Q319.63 11.58 319.21 12.55Q318.79 13.52 318.49 14.48Q318.19 15.43 318.12 16.24L318.12 16.24Q317.45 16.04 317.19 15.85Q316.93 15.65 316.93 15.37L316.93 15.37Q316.93 15.12 317.09 14.66Q317.24 14.20 317.52 13.57Q317.80 12.94 318.21 12.16Q318.61 11.38 319.10 10.49L319.10 10.49Q319.66 9.46 320.20 8.57Q320.74 7.67 321.26 6.94Q321.78 6.22 322.27 5.68Q322.77 5.15 323.26 4.87L323.26 4.87Q323.46 4.87 323.79 4.97Q324.11 5.07 324.43 5.21Q324.74 5.35 324.99 5.49Q325.23 5.64 325.26 5.74L325.26 5.74Q325.07 6.13 324.80 6.92Q324.53 7.70 324.26 8.69Q323.99 9.69 323.74 10.80Q323.50 11.91 323.36 12.94L323.36 12.94Q323.68 12.17 324.11 11.33Q324.53 10.50 325.01 9.68Q325.49 8.86 325.98 8.09Q326.48 7.32 326.96 6.69Q327.43 6.05 327.85 5.57Q328.26 5.10 328.58 4.87L328.58 4.87Q328.78 4.87 329.11 4.97Q329.43 5.07 329.75 5.21Q330.06 5.35 330.31 5.49Q330.55 5.64 330.58 5.74L330.58 5.74Q330.13 6.54 329.80 7.69Q329.46 8.83 329.23 10.09Q329.00 11.35 328.88 12.59Q328.76 13.83 328.76 14.81L328.76 14.81Q328.76 15.13 328.76 15.48Q328.76 15.83 328.79 16.21L328.79 16.21Q328.59 16.21 328.32 16.16Q328.05 16.11 327.79 16.03Q327.53 15.95 327.32 15.84Q327.11 15.74 327.03 15.61L327.03 15.61Q327.01 15.41 327.01 15.20Q327.01 14.99 327.01 14.80L327.01 14.80Q327.01 13.23 327.24 11.52Q327.47 9.81 328.01 7.83L328.01 7.83Q328.06 7.63 328.13 7.29Q328.20 6.96 328.27 6.59L328.27 6.59Q327.88 6.79 327.38 7.34Q326.89 7.90 326.38 8.69Q325.86 9.48 325.37 10.44Q324.87 11.41 324.47 12.41Q324.07 13.41 323.80 14.40Q323.53 15.39 323.47 16.21ZM347.41 7.63L347.41 7.63Q347.41 8.40 347.03 9.10Q346.64 9.80 345.99 10.32Q345.34 10.85 344.46 11.16Q343.59 11.47 342.61 11.47L342.61 11.47Q342.26 11.47 342.06 11.38Q341.85 11.28 341.60 11.02L341.60 11.02Q340.90 12.54 340.46 13.82Q340.02 15.11 339.77 16.31L339.77 16.31Q339.23 16.18 338.90 15.87Q338.56 15.55 338.28 15.08L338.28 15.08Q338.42 14.81 338.62 14.38Q338.81 13.94 339.09 13.31Q339.37 12.67 339.75 11.78Q340.12 10.89 340.62 9.70L340.62 9.70Q340.84 9.16 341.01 8.75Q341.18 8.34 341.31 7.99Q341.43 7.63 341.54 7.28Q341.64 6.93 341.75 6.51L341.75 6.51Q341.10 6.72 340.54 7Q339.99 7.28 339.63 7.59L339.63 7.59Q339.50 7.50 339.37 7.34Q339.23 7.17 339.12 6.96Q339.01 6.76 338.93 6.55Q338.84 6.34 338.83 6.17L338.83 6.17Q339.23 5.89 339.84 5.66Q340.44 5.42 341.12 5.24Q341.81 5.07 342.55 4.97Q343.28 4.87 343.95 4.87L343.95 4.87Q344.75 4.87 345.39 5.07Q346.04 5.28 346.49 5.64Q346.93 6.01 347.17 6.51Q347.41 7.01 347.41 7.63ZM344.92 5.95L344.92 5.95Q344.39 5.95 343.83 6.03L343.83 6.03L343.99 6.29Q343.85 6.47 343.64 6.83Q343.43 7.20 343.18 7.71Q342.93 8.22 342.63 8.85Q342.33 9.48 341.99 10.18L341.99 10.18Q343.08 10.18 343.98 9.97Q344.88 9.77 345.51 9.41Q346.15 9.06 346.51 8.58Q346.86 8.11 346.86 7.56L346.86 7.56Q346.86 6.83 346.37 6.39Q345.88 5.95 344.92 5.95ZM359.07 14.38L359.07 14.38Q359.42 14.98 359.42 15.54L359.42 15.54Q359.42 15.67 359.40 15.77Q359.38 15.88 359.35 15.99L359.35 15.99Q359.11 15.96 358.86 15.95Q358.60 15.93 358.32 15.93L358.32 15.93Q357.98 15.93 357.64 15.95Q357.29 15.97 356.87 16.02Q356.45 16.06 355.94 16.13Q355.42 16.20 354.73 16.31L354.73 16.31Q354.41 16.20 354.09 15.87Q353.77 15.54 353.49 15.08L353.49 15.08Q353.63 14.77 353.84 14.31Q354.05 13.86 354.33 13.21Q354.61 12.56 354.95 11.68Q355.29 10.81 355.68 9.66L355.68 9.66Q355.94 8.90 356.12 8.33Q356.30 7.76 356.45 7.22Q356.59 6.68 356.73 6.09Q356.87 5.50 357.04 4.73L357.04 4.73Q357.60 4.84 358.02 5.14Q358.43 5.45 358.81 6.01L358.81 6.01Q358.69 6.19 358.51 6.59Q358.33 7 358.09 7.58Q357.84 8.16 357.55 8.90Q357.25 9.63 356.93 10.47L356.93 10.47Q356.62 11.30 356.33 12.03Q356.03 12.75 355.80 13.34Q355.57 13.93 355.43 14.35Q355.29 14.77 355.29 14.98L355.29 14.98Q355.52 14.97 355.70 14.95Q355.88 14.94 356.08 14.90Q356.27 14.87 356.50 14.82Q356.73 14.77 357.06 14.69L357.06 14.69Q357.34 14.62 357.57 14.57Q357.81 14.52 358.04 14.48Q358.27 14.45 358.52 14.43Q358.76 14.41 359.07 14.38ZM368.03 14.38L368.03 14.38Q368.03 13.87 368.19 13.07Q368.35 12.26 368.61 11.33Q368.87 10.40 369.21 9.43Q369.54 8.46 369.89 7.60Q370.24 6.75 370.58 6.10Q370.92 5.46 371.18 5.18L371.18 5.18Q371.32 5.19 371.55 5.29Q371.78 5.38 372.02 5.50Q372.26 5.63 372.46 5.78Q372.65 5.92 372.71 6.05L372.71 6.05Q372.30 6.41 371.90 7.15Q371.50 7.88 371.13 8.82Q370.76 9.76 370.44 10.80Q370.12 11.84 369.88 12.82Q369.64 13.80 369.51 14.64Q369.38 15.48 369.38 16.00L369.38 16.00Q369.38 16.24 369.42 16.30L369.42 16.30Q369.11 16.28 368.97 16.19Q368.83 16.10 368.75 16.00Q368.68 15.89 368.61 15.79Q368.55 15.68 368.42 15.62L368.42 15.62Q368.33 15.58 368.26 15.43Q368.19 15.27 368.14 15.09Q368.09 14.90 368.06 14.70Q368.03 14.50 368.03 14.38ZM384.89 9.34L384.89 9.34Q385.34 9.34 385.60 9.59Q385.85 9.84 385.85 10.29L385.85 10.29Q385.85 10.40 385.84 10.52Q385.83 10.64 385.78 10.72L385.78 10.72Q385.60 10.70 385.38 10.68Q385.15 10.65 384.85 10.65L384.85 10.65Q384.22 10.65 383.59 10.77Q382.96 10.88 382.38 10.95L382.38 10.95Q381.75 12.43 381.35 13.73Q380.94 15.04 380.72 16.31L380.72 16.31Q380.24 16.20 379.88 15.90Q379.51 15.61 379.19 15.08L379.19 15.08Q379.29 14.85 379.43 14.54Q379.57 14.22 379.76 13.74Q379.96 13.26 380.23 12.56Q380.51 11.87 380.88 10.91L380.88 10.91Q380.30 10.71 380.11 10.22L380.11 10.22Q380.18 10.15 380.51 10.06Q380.83 9.97 381.29 9.86L381.29 9.86Q381.50 9.31 381.65 8.88Q381.81 8.46 381.93 8.07Q382.06 7.69 382.17 7.32Q382.27 6.94 382.35 6.52L382.35 6.52L382.28 6.52Q381.75 6.52 381.42 6.27Q381.09 6.02 381.09 5.61L381.09 5.61Q381.09 5.50 381.13 5.35Q381.16 5.19 381.22 5.08L381.22 5.08Q381.49 5.12 381.75 5.14Q382.00 5.15 382.42 5.15L382.42 5.15Q383.31 5.15 384.08 5.10Q384.85 5.05 385.47 5.00Q386.09 4.94 386.54 4.89Q386.99 4.84 387.23 4.84L387.23 4.84Q387.55 4.84 387.80 5.18Q388.05 5.52 388.19 6.13L388.19 6.13Q387.74 6.09 387.47 6.08Q387.20 6.06 386.99 6.06L386.99 6.06Q386.27 6.06 385.68 6.13Q385.08 6.19 384.55 6.27L384.55 6.27Q384.47 6.40 384.36 6.59Q384.26 6.79 384.09 7.15Q383.92 7.50 383.66 8.08Q383.40 8.65 383.01 9.53L383.01 9.53Q383.56 9.45 384.06 9.39Q384.55 9.34 384.89 9.34ZM394.16 14.38L394.16 14.38Q394.16 13.87 394.32 13.07Q394.48 12.26 394.74 11.33Q395.00 10.40 395.33 9.43Q395.67 8.46 396.02 7.60Q396.37 6.75 396.70 6.10Q397.04 5.46 397.31 5.18L397.31 5.18Q397.45 5.19 397.68 5.29Q397.91 5.38 398.15 5.50Q398.38 5.63 398.58 5.78Q398.78 5.92 398.83 6.05L398.83 6.05Q398.43 6.41 398.03 7.15Q397.63 7.88 397.26 8.82Q396.89 9.76 396.56 10.80Q396.24 11.84 396.00 12.82Q395.77 13.80 395.63 14.64Q395.50 15.48 395.50 16.00L395.50 16.00Q395.50 16.24 395.54 16.30L395.54 16.30Q395.23 16.28 395.09 16.19Q394.95 16.10 394.88 16.00Q394.80 15.89 394.74 15.79Q394.67 15.68 394.55 15.62L394.55 15.62Q394.45 15.58 394.38 15.43Q394.31 15.27 394.26 15.09Q394.21 14.90 394.18 14.70Q394.16 14.50 394.16 14.38ZM410.93 9.21L410.93 9.21Q411.39 9.21 411.65 9.46Q411.91 9.72 411.91 10.16L411.91 10.16Q411.91 10.28 411.89 10.39Q411.87 10.51 411.84 10.60L411.84 10.60Q411.66 10.57 411.43 10.55Q411.21 10.53 410.90 10.53L410.90 10.53Q410.30 10.53 409.68 10.63Q409.07 10.74 408.51 10.81L408.51 10.81Q408.18 11.55 407.92 12.24Q407.65 12.94 407.46 13.51Q407.27 14.08 407.17 14.50Q407.06 14.92 407.05 15.13L407.05 15.13Q408.18 14.90 409.34 14.73Q410.49 14.56 411.77 14.48L411.77 14.48Q411.92 14.71 412.03 14.99Q412.13 15.27 412.13 15.60L412.13 15.60Q412.13 15.68 412.13 15.78Q412.13 15.88 412.10 15.97L412.10 15.97Q411.71 15.96 411.28 15.95Q410.84 15.95 410.14 15.95L410.14 15.95Q409.68 15.95 409.27 15.97Q408.86 15.99 408.44 16.03Q408.02 16.07 407.55 16.14Q407.08 16.21 406.49 16.31L406.49 16.31Q405.85 16.06 405.24 15.08L405.24 15.08Q405.48 14.57 405.91 13.54Q406.34 12.52 406.99 10.79L406.99 10.79Q406.36 10.60 406.17 10.09L406.17 10.09Q406.24 10.02 406.57 9.92Q406.91 9.81 407.40 9.70L407.40 9.70Q407.61 9.16 407.76 8.75Q407.90 8.34 408.02 7.99Q408.13 7.63 408.22 7.29Q408.31 6.94 408.39 6.54L408.39 6.54Q407.90 6.51 407.62 6.27Q407.34 6.02 407.34 5.63L407.34 5.63Q407.34 5.52 407.38 5.36Q407.41 5.21 407.46 5.10L407.46 5.10Q407.74 5.14 408.00 5.15Q408.25 5.17 408.67 5.17L408.67 5.17Q409.56 5.17 410.33 5.12Q411.10 5.07 411.72 5.01Q412.34 4.96 412.79 4.91Q413.24 4.86 413.48 4.86L413.48 4.86Q413.80 4.86 414.05 5.19Q414.30 5.53 414.43 6.15L414.43 6.15Q413.99 6.10 413.72 6.09Q413.45 6.08 413.24 6.08L413.24 6.08Q412.47 6.08 411.83 6.15Q411.19 6.23 410.61 6.31L410.61 6.31Q410.52 6.44 410.42 6.64Q410.31 6.83 410.14 7.18Q409.98 7.53 409.73 8.06Q409.49 8.60 409.14 9.39L409.14 9.39Q409.67 9.31 410.14 9.26Q410.61 9.21 410.93 9.21ZM421.61 14.45L421.61 14.45Q421.82 13.99 422.11 13.26Q422.41 12.53 422.73 11.68Q423.05 10.84 423.39 9.95Q423.72 9.06 424.02 8.26Q424.31 7.46 424.53 6.83Q424.75 6.20 424.84 5.87L424.84 5.87Q423.96 6.23 423.33 6.97Q422.70 7.71 422.38 8.83L422.38 8.83Q422.06 8.72 421.79 8.43Q421.53 8.15 421.44 7.71L421.44 7.71Q421.58 7.07 421.97 6.54Q422.35 6.01 422.94 5.63Q423.53 5.25 424.30 5.05Q425.07 4.84 425.95 4.84L425.95 4.84Q427.07 4.84 428.01 5.17Q428.95 5.50 429.62 6.09Q430.29 6.68 430.67 7.50Q431.05 8.33 431.05 9.34L431.05 9.34Q431.05 10.71 430.54 11.96Q430.04 13.20 429.18 14.15Q428.32 15.11 427.18 15.67Q426.05 16.24 424.80 16.24L424.80 16.24Q423.65 16.24 422.84 15.79Q422.02 15.33 421.61 14.45ZM426.55 5.54L426.55 5.54Q425.85 5.54 425.22 5.74L425.22 5.74Q425.84 5.96 426.24 6.21Q426.65 6.45 426.80 6.59L426.80 6.59Q426.69 6.75 426.48 7.14Q426.26 7.53 425.97 8.09Q425.68 8.65 425.36 9.32Q425.04 9.98 424.73 10.68L424.73 10.68Q423.93 12.46 423.58 13.48Q423.22 14.50 423.22 14.90L423.22 14.90Q423.42 14.97 423.70 14.99Q423.98 15.02 424.30 15.02L424.30 15.02Q425.43 15.02 426.45 14.50Q427.46 13.97 428.23 13.09Q428.99 12.21 429.43 11.04Q429.87 9.87 429.87 8.58L429.87 8.58Q429.87 7.14 428.97 6.34Q428.08 5.54 426.55 5.54Z"></path></g></svg>