<svg xmlns="http://www.w3.org/2000/svg" xmlns:xlink="http://www.w3.org/1999/xlink" version="1.1" x="0px" y="0px" viewBox="0 0 69 69" style="enable-background:new 0 0 69 69;" xml:space="preserve"><g><circle cx="34.5" cy="34.5" r="30" fill="#fff"/><g transform="translate(6.9,6.9) scale(0.8)"><path fill="#2563EB" d="M66.71973,61.75742H48.42834v-1.12488c0-1.19-0.96997-2.13995-2.14996-2.13995h-3.91003l-1.48999-3.46002h-12.75   l-1.48999,3.46002h-3.91998c-1.18005,0-2.14001,0.94995-2.14001,2.13995v1.12488H2.28027c-0.55225,0-1,0.44727-1,1s0.44775,1,1,1   h64.43945c0.55273,0,1-0.44727,1-1S67.27246,61.75742,66.71973,61.75742z"></path><path fill="#2563EB" d="M7.93835,53.03256h53.13c2.44,0,4.42999-1.98999,4.42999-4.42999c-0.07001-34.91998-0.08002-39.65002-0.08002-39.65002   c0-0.07001-0.00995-0.13-0.01996-0.20001c-0.42999-2.03998-2.26001-3.50995-4.34003-3.50995h-53.13   c-2.44,0-4.42999,1.97998-4.42999,4.42999v38.92999C3.49835,51.04257,5.48834,53.03256,7.93835,53.03256z M37.08838,48.99258   h-5.17999c-0.55005,0-1-0.45001-1-1c0-0.56,0.44995-1,1-1h5.17999c0.54999,0,1,0.44,1,1   C38.08838,48.54257,37.63837,48.99258,37.08838,48.99258z M8.49835,10.24258h51.91998l0.08002,33.79999h-52V10.24258z"></path><path fill="#2563EB" d="M14.4494,30.29831h-3c-0.55231,0-1,0.44775-1,1V36.965c0,0.55231,0.44769,1,1,1h3c0.55231,0,1-0.44769,1-1v-5.66669   C15.4494,30.74606,15.00171,30.29831,14.4494,30.29831z"></path><path fill="#2563EB" d="M23.1994,25.70023h-3c-0.55231,0-1,0.44769-1,1V36.965c0,0.55231,0.44769,1,1,1h3c0.55231,0,1-0.44769,1-1V26.70023   C24.1994,26.14792,23.75171,25.70023,23.1994,25.70023z"></path><path fill="#2563EB" d="M31.9494,23.70023h-3c-0.55231,0-1,0.44769-1,1V36.965c0,0.55231,0.44769,1,1,1h3c0.55231,0,1-0.44769,1-1V24.70023   C32.9494,24.14792,32.50171,23.70023,31.9494,23.70023z"></path><path fill="#2563EB" d="M51.25684,21.37851c-2.07605-0.4306-4.23792,0.01447-5.96838,1.17847l4.0387,5.56073L51.25684,21.37851z"></path><path fill="#2563EB" d="M53.15137,22.02792l-2.33197,8.14435l3.71057,5.10895c1.90674-1.48834,3.02081-3.74188,3.02081-6.1908   C57.55078,26.05917,55.82031,23.33749,53.15137,22.02792z"></path><path fill="#2563EB" d="M43.77734,23.88144c-1.2666,1.43164-1.97656,3.2793-1.97656,5.20898c0,4.34277,3.53223,7.875,7.875,7.875   c1.07703,0,2.14038-0.22467,3.12854-0.65515l-3.89026-5.35657L43.77734,23.88144z"></path><path fill="#2563EB" d="M35.92834,12.12253l-0.07996,0.01001l-4.56006,0.48999c-0.54999,0.06006-0.94995,0.55005-0.88995,1.10004   s0.56,0.95001,1.10999,0.89001l1.84003-0.20001l-3.07001,3.12l-8.08002-4.63c-0.37-0.21002-0.83002-0.16998-1.15002,0.10999   l-8.75,7.52002c-0.41998,0.35999-0.46997,0.98999-0.10999,1.40997c0.20001,0.23004,0.47998,0.35004,0.76001,0.35004   c0.22998,0,0.46002-0.08002,0.65002-0.23999l8.21997-7.07001l8.13,4.66998c0.40002,0.22998,0.89001,0.15997,1.21002-0.16998   l3.60999-3.66003l-0.16998,1.84003c-0.06006,0.54999,0.34998,1.03998,0.88995,1.08997h0.10004c0.51001,0,0.94995-0.38,1-0.89996   l0.44-4.64001v-0.09998c0-0.26001-0.10004-0.52002-0.29004-0.71002C36.51837,12.19254,36.22833,12.09256,35.92834,12.12253z"></path></g></g></svg>