<svg data-v-423bf9ae="" xmlns="http://www.w3.org/2000/svg" viewBox="0 0 487 90" class="iconLeftSlogan"><!----><!----><!----><g data-v-423bf9ae="" id="c69a9e65-bffc-49a4-a42d-bc3dcb2ec060" fill="" transform="matrix(4.861105015746644,0,0,4.861105015746644,120.73260167831035,-14.34026074350389)"><path d="M5.15 12.78L6.91 11.53L6.74 11.20Q6.19 11.66 6.21 9.74L6.21 9.74Q6.28 5.43 6.19 4.76Q6.09 4.10 5.56 3.62L5.56 3.62L4.06 4.74L4.06 4.98Q4.55 4.83 4.63 5.22L4.63 5.22Q4.81 7.16 4.68 10.08L4.68 10.08Q3.73 11.25 3.08 10.91Q2.42 10.58 2.43 8.48L2.43 8.48Q2.47 5.50 2.42 4.79Q2.37 4.07 1.78 3.55L1.78 3.55L0.30 4.73L0.33 4.96Q0.84 4.84 0.91 5.24L0.91 5.24L0.94 9.38Q0.88 10.66 1.09 11.44Q1.30 12.21 1.92 12.58Q2.55 12.95 3.13 12.57Q3.71 12.19 4.08 11.77Q4.45 11.35 4.65 11.04L4.65 11.04Q4.58 12.26 5.15 12.78L5.15 12.78ZM11.07 3.48Q10.73 3.49 10.51 3.64Q10.29 3.80 9.04 5.41L9.04 5.41L9.33 5.63Q9.75 5.11 10.02 4.95Q10.29 4.79 10.41 5.36L10.41 5.36L9.37 8.38L8.74 8.38L7.34 9.75L7.47 9.97Q8.18 9.82 8.71 9.86L8.71 9.86Q8.37 10.79 8.07 11.34Q7.77 11.88 7.20 12.38L7.20 12.38L7.30 12.69L9.52 12.68L10.50 11.39L10.40 11.27L8.71 11.26Q9.20 11.01 9.71 9.86L9.71 9.86L11.06 9.85L11.74 9.12Q12.64 11.66 13.05 12.16Q13.46 12.67 13.91 12.78L13.91 12.78L14.97 11.53Q14.16 11.35 13.01 7.69Q11.85 4.03 11.63 3.75Q11.42 3.48 11.07 3.48ZM10.86 6.47L11.53 8.44L10.19 8.43L10.86 6.47ZM18.42 3.61L17.47 5.03L17.61 5.14Q17.97 4.83 20.48 4.96L20.48 4.96Q20.13 5.34 19.84 5.67L19.84 5.67L19.87 11.51Q20.12 12.56 20.98 12.74L20.98 12.74L22.13 11.70L22.03 11.46Q21.50 11.48 21.38 10.42L21.38 10.42L21.41 4.94L22.84 4.94L24.05 3.75L23.93 3.61L18.42 3.61ZM25.51 6.42L23.84 7.64L23.99 7.87Q24.50 7.56 24.45 8.50L24.45 8.50Q24.38 11.46 24.47 11.91Q24.55 12.37 25.13 12.71L25.13 12.71L26.58 11.46L26.58 11.29Q26.12 11.40 26.00 10.78Q25.87 10.17 25.95 8.27L25.95 8.27Q26.82 7.48 27.49 8.43L27.49 8.43L28.72 7.29Q27.95 6.25 27.32 6.49Q26.69 6.72 25.98 7.62L25.98 7.62Q26.04 6.77 25.51 6.42L25.51 6.42ZM31.71 6.49Q30.71 6.45 29.64 7.15Q28.57 7.85 29.19 9.02L29.19 9.02L30.71 8.13Q30.04 7.09 31.30 7.06Q32.56 7.03 32.40 8.76L32.40 8.76L30.19 8.80L28.49 10.71Q28.42 11.55 29.09 12.14Q29.76 12.73 30.41 12.70Q31.07 12.67 31.53 12.39Q32.00 12.10 32.45 11.57L32.45 11.57Q32.61 12.52 33.56 12.69L33.56 12.69L34.77 11.38L34.69 11.21Q34.14 11.33 33.99 10.58L33.99 10.58L34.00 8.16Q33.92 7.23 33.32 6.88Q32.72 6.53 31.71 6.49ZM29.89 9.88L32.40 9.88L32.40 11.11Q32.15 11.42 31.25 11.39Q30.36 11.35 29.63 10.12L29.63 10.12L29.89 9.88ZM37.83 6.62Q37.45 6.77 37.11 6.99Q36.78 7.21 36.42 7.49L36.42 7.49Q33.97 9.38 35.57 11.66L35.57 11.66Q36.02 12.21 36.48 12.45Q36.95 12.69 37.59 12.70Q38.24 12.70 38.92 12.07Q39.60 11.44 40.04 10.79L40.04 10.79L39.83 10.60Q39.66 10.82 39.38 11.07Q39.11 11.32 38.67 11.32Q38.24 11.33 37.73 10.99L37.73 10.99Q36.20 10.14 36.53 8.37L36.53 8.37Q36.72 7.62 37.57 7.85L37.57 7.85Q38.30 8.12 38.58 8.98L38.58 8.98L39.92 7.93Q39.90 7.33 39.47 7.00Q39.05 6.66 38.63 6.56Q38.21 6.47 37.83 6.62ZM41.79 2.95L40.52 3.94Q40.70 4.29 40.73 4.87L40.73 4.87Q40.65 11.47 40.77 11.98Q40.88 12.50 41.34 12.81L41.34 12.81L42.94 11.61L42.74 11.39Q42.38 11.69 42.29 11.14Q42.21 10.59 42.25 8.05L42.25 8.05Q42.88 7.52 43.34 7.58Q43.79 7.64 43.89 8.03Q43.99 8.42 43.65 8.77Q43.31 9.13 42.35 9.56L42.35 9.56L42.35 10.00Q42.92 9.33 43.66 10.86Q44.41 12.38 45.02 12.77L45.02 12.77L46.75 11.42L46.55 11.25Q46.04 11.61 45.32 10.46Q44.60 9.32 44.13 9.13L44.13 9.13Q44.99 8.69 45.31 8.18Q45.62 7.66 45.34 7.13Q45.06 6.60 44.56 6.54Q44.06 6.47 43.59 6.68Q43.11 6.89 42.23 7.59L42.23 7.59L42.23 3.80Q42.14 3.22 41.79 2.95L41.79 2.95ZM47.94 3.68L46.57 4.86Q47.21 5.30 47.54 5.91L47.54 5.91Q48.69 5.15 48.83 4.96Q48.97 4.76 48.75 4.31Q48.54 3.86 47.94 3.68L47.94 3.68ZM46.79 7.76Q47.37 7.43 47.17 9.23L47.17 9.23Q47.13 11.37 47.18 11.88Q47.23 12.39 47.79 12.72L47.79 12.72L49.15 11.45L49.16 11.27Q48.78 11.29 48.70 10.76Q48.61 10.23 48.65 8.94Q48.69 7.65 48.67 7.25Q48.65 6.85 48.30 6.45L48.30 6.45L46.68 7.57L46.79 7.76ZM52.40 6.52Q51.69 6.63 51.24 6.92Q50.78 7.21 50.47 7.52Q50.15 7.84 49.98 8.41Q49.82 8.98 50.27 9.39Q50.73 9.80 51.78 10.02Q52.83 10.24 53.18 10.55Q53.53 10.87 53.56 11.14Q53.59 11.42 53.34 11.52Q53.09 11.61 52.58 11.54Q52.08 11.46 51.61 11.22Q51.14 10.99 50.81 10.65Q50.48 10.32 50.76 10.02L50.76 10.02L50.60 9.93L49.54 10.84Q49.42 11.20 49.82 11.67Q50.22 12.14 50.83 12.40Q51.45 12.66 52.09 12.70Q52.73 12.74 53.38 12.32Q54.02 11.90 54.32 11.35Q54.62 10.81 54.56 10.26Q54.50 9.71 54.14 9.30Q53.78 8.88 52.60 8.55Q51.42 8.22 51.23 7.84Q51.04 7.45 51.53 7.38Q52.01 7.31 52.67 7.63Q53.33 7.96 53.11 8.25L53.11 8.25L53.20 8.35L54.22 7.38Q54.11 6.92 53.61 6.67Q53.11 6.41 52.40 6.52ZM57.11 3.70L55.87 4.68Q56.27 4.64 56.10 6.90L56.10 6.90L55.65 6.91L54.67 8.26L54.88 8.45Q55.20 8.09 56.05 8.13L56.05 8.13Q55.93 11.08 56.06 11.67Q56.18 12.25 56.86 12.72L56.86 12.72Q57.80 12.24 59.11 11.16L59.11 11.16L58.99 10.63Q57.52 11.38 57.43 10.75Q57.35 10.13 57.42 8.13L57.42 8.13L58.27 8.13L59.17 7.02L59.11 6.88L57.44 6.86L57.52 4.57Q57.44 3.98 57.11 3.70L57.11 3.70ZM61.93 6.49Q60.78 7.24 60.30 7.80Q59.83 8.35 59.64 8.92Q59.45 9.48 59.57 10.33Q59.70 11.18 60.57 11.96Q61.43 12.75 61.95 12.75Q62.47 12.76 63.59 11.74L63.59 11.74Q64.02 11.35 64.34 10.91Q64.67 10.47 64.82 9.67Q64.98 8.87 64.56 7.90L64.56 7.90Q63.53 6.30 61.93 6.49L61.93 6.49ZM61.70 7.70Q62.57 7.83 63.08 8.81Q63.58 9.79 63.41 10.78Q63.25 11.76 62.36 11.29Q61.48 10.81 61.04 10.00Q60.59 9.19 60.71 8.37Q60.83 7.56 61.70 7.70ZM66.87 6.42L65.19 7.64L65.35 7.87Q65.86 7.56 65.80 8.50L65.80 8.50Q65.73 11.46 65.82 11.91Q65.91 12.37 66.49 12.71L66.49 12.71L67.94 11.46L67.94 11.29Q67.48 11.40 67.35 10.78Q67.23 10.17 67.31 8.27L67.31 8.27Q68.18 7.48 68.84 8.43L68.84 8.43L70.08 7.29Q69.30 6.25 68.67 6.49Q68.04 6.72 67.33 7.62L67.33 7.62Q67.40 6.77 66.87 6.42L66.87 6.42ZM74.74 6.46L73.33 7.51Q73.64 7.48 73.60 8.18L73.60 8.18L73.60 11.11L73.26 11.49Q72.86 11.70 72.45 11.62Q72.04 11.55 71.91 10.94L71.91 10.94L71.92 7.57Q71.80 6.68 71.32 6.48L71.32 6.48L70.07 7.40Q70.48 7.68 70.45 8.52L70.45 8.52L70.44 11.02Q70.52 11.84 71.07 12.32Q71.62 12.80 72.42 12.73Q73.22 12.66 73.66 11.90L73.66 11.90Q73.77 13.30 73.64 13.91Q73.51 14.51 72.54 14.21Q71.57 13.90 70.57 12.96L70.57 12.96L69.49 14.21Q71.37 15.61 72.57 15.20Q73.77 14.80 74.44 14.31Q75.11 13.82 75.22 12.50L75.22 12.50L75.21 7.98Q75.28 6.99 74.74 6.46L74.74 6.46Z"></path></g><!----><g data-v-423bf9ae="" id="3a92990d-49f2-4c3e-8786-1daacae36f43" transform="matrix(1.538093449326277,0,0,1.538093449326277,-1.784225863917058,-7.821223458073078)" stroke="none" fill="#2563EB"><path d="M66.72 61.757H48.428v-1.124c0-1.19-.97-2.14-2.15-2.14h-3.91l-1.49-3.46h-12.75l-1.49 3.46h-3.92c-1.18 0-2.14.95-2.14 2.14v1.124H2.28a1 1 0 100 2h64.44a1 1 0 100-2zM7.938 53.033h53.13c2.44 0 4.43-1.99 4.43-4.43l-.08-39.65c0-.07-.01-.13-.02-.2-.43-2.04-2.26-3.51-4.34-3.51H7.928c-2.44 0-4.43 1.98-4.43 4.43v38.93a4.44 4.44 0 004.44 4.43zm29.15-4.04h-5.18c-.55 0-1-.45-1-1 0-.56.45-1 1-1h5.18c.55 0 1 .44 1 1 0 .55-.45 1-1 1zm-28.59-38.75h51.92l.08 33.8h-52v-33.8z"></path><path d="M14.45 30.298h-3a1 1 0 00-1 1v5.667a1 1 0 001 1h3a1 1 0 001-1v-5.667a1 1 0 00-1-1zM23.2 25.7h-3a1 1 0 00-1 1v10.265a1 1 0 001 1h3a1 1 0 001-1V26.7a1 1 0 00-1-1zM31.95 23.7h-3a1 1 0 00-1 1v12.265a1 1 0 001 1h3a1 1 0 001-1V24.7a1 1 0 00-1-1zM51.257 21.379a7.868 7.868 0 00-5.969 1.178l4.04 5.56 1.929-6.738zM53.151 22.028l-2.332 8.144 3.711 5.11a7.81 7.81 0 003.02-6.192 7.862 7.862 0 00-4.399-7.062zM43.777 23.881a7.858 7.858 0 00-1.976 5.21c0 4.342 3.532 7.874 7.875 7.874a7.83 7.83 0 003.128-.655l-3.89-5.356-5.137-7.073zM35.928 12.123l-.08.01-4.56.49c-.55.06-.95.55-.89 1.1s.56.95 1.11.89l1.84-.2-3.07 3.12-8.08-4.63a.996.996 0 00-1.15.11l-8.75 7.52a.999.999 0 101.3 1.52l8.22-7.07 8.13 4.67c.4.23.89.16 1.21-.17l3.61-3.66-.17 1.84c-.06.55.35 1.04.89 1.09h.1a1 1 0 001-.9l.44-4.64v-.1c0-.26-.1-.52-.29-.71-.22-.21-.51-.31-.81-.28z"></path></g><!----><g data-v-423bf9ae="" id="beed8594-a929-4c70-9e3b-8db512151cb8" fill="#" transform="matrix(0.657909402929821,0,0,0.657909402929821,121.66460433720081,56.26307332761033)"><path d="M0.80 15.68L0.80 14.59L1.64 14.59L1.64 6.97L0.80 6.97L0.80 5.88L4.76 5.88Q5.46 5.88 6.00 6.08Q6.54 6.27 6.91 6.61Q7.28 6.94 7.47 7.41Q7.66 7.88 7.66 8.43L7.66 8.43L7.66 8.60Q7.66 9.00 7.53 9.34Q7.41 9.67 7.18 9.94Q6.96 10.21 6.66 10.39Q6.36 10.58 6.01 10.68L6.01 10.68L6.01 10.85Q6.71 11.05 7.18 11.60Q7.66 12.15 7.66 12.95L7.66 12.95L7.66 13.12Q7.66 13.66 7.47 14.13Q7.28 14.60 6.91 14.95Q6.54 15.29 6.00 15.48Q5.46 15.68 4.76 15.68L4.76 15.68L0.80 15.68ZM2.81 11.31L2.81 14.59L4.68 14.59Q5.50 14.59 6.02 14.17Q6.54 13.76 6.54 13.03L6.54 13.03L6.54 12.95Q6.54 12.19 6.05 11.75Q5.56 11.31 4.72 11.31L4.72 11.31L2.81 11.31ZM2.81 6.97L2.81 10.22L4.72 10.22Q5.56 10.22 6.05 9.79Q6.54 9.35 6.54 8.60L6.54 8.60L6.54 8.51Q6.54 7.80 6.02 7.38Q5.50 6.97 4.68 6.97L4.68 6.97L2.81 6.97ZM16.49 5.88L17.67 5.88L17.67 12.38Q17.67 13.57 18.22 14.17Q18.77 14.78 19.85 14.78L19.85 14.78Q20.93 14.78 21.48 14.17Q22.04 13.57 22.04 12.38L22.04 12.38L22.04 5.88L23.21 5.88L23.21 12.38Q23.21 14.08 22.32 14.98Q21.42 15.88 19.85 15.88L19.85 15.88Q18.28 15.88 17.39 14.98Q16.49 14.08 16.49 12.38L16.49 12.38L16.49 5.88ZM32.31 6.97L32.31 5.88L38.53 5.88L38.53 6.97L36.01 6.97L36.01 14.59L38.53 14.59L38.53 15.68L32.31 15.68L32.31 14.59L34.83 14.59L34.83 6.97L32.31 6.97ZM53.30 9.21L53.30 8.71Q53.30 8.23 53.11 7.87Q52.92 7.50 52.60 7.27Q52.28 7.03 51.86 6.90Q51.44 6.78 50.97 6.78L50.97 6.78Q50.57 6.78 50.20 6.88Q49.84 6.99 49.55 7.18Q49.27 7.38 49.10 7.66Q48.93 7.95 48.93 8.33L48.93 8.33L48.93 8.41Q48.93 8.82 49.10 9.11Q49.27 9.39 49.59 9.60Q49.92 9.80 50.41 9.93Q50.90 10.07 51.56 10.16L51.56 10.16Q53.10 10.40 53.83 11.07Q54.56 11.73 54.56 12.85L54.56 12.85L54.56 13.02Q54.56 13.65 54.34 14.17Q54.12 14.70 53.70 15.08Q53.27 15.46 52.64 15.67Q52.01 15.88 51.18 15.88L51.18 15.88Q50.25 15.88 49.52 15.60Q48.80 15.33 48.32 14.85Q47.84 14.36 47.59 13.71Q47.33 13.06 47.33 12.29L47.33 12.29L47.33 11.87L48.51 11.87L48.51 12.21Q48.51 13.50 49.22 14.14Q49.92 14.78 51.18 14.78L51.18 14.78Q52.28 14.78 52.83 14.30Q53.38 13.82 53.38 13.02L53.38 13.02L53.38 12.94Q53.38 12.17 52.81 11.76Q52.25 11.35 50.97 11.17L50.97 11.17Q50.23 11.07 49.64 10.87Q49.04 10.67 48.62 10.34Q48.20 10.01 47.98 9.55Q47.75 9.09 47.75 8.46L47.75 8.46L47.75 8.29Q47.75 7.71 47.99 7.24Q48.23 6.76 48.66 6.41Q49.08 6.06 49.68 5.87Q50.27 5.68 50.99 5.68L50.99 5.68Q51.81 5.68 52.47 5.92Q53.12 6.16 53.56 6.56Q54.01 6.96 54.24 7.50Q54.47 8.04 54.47 8.62L54.47 8.62L54.47 9.21L53.30 9.21ZM65.65 5.88L68.47 15.18L68.64 15.18L68.64 5.88L69.82 5.88L69.82 15.68L67.47 15.68L64.64 6.38L64.47 6.38L64.47 15.68L63.29 15.68L63.29 5.88L65.65 5.88ZM79.16 15.68L79.16 5.88L85.09 5.88L85.09 6.97L80.33 6.97L80.33 10.22L85.01 10.22L85.01 11.31L80.33 11.31L80.33 14.59L85.18 14.59L85.18 15.68L79.16 15.68ZM100.00 9.21L100.00 8.71Q100.00 8.23 99.81 7.87Q99.62 7.50 99.30 7.27Q98.98 7.03 98.56 6.90Q98.14 6.78 97.68 6.78L97.68 6.78Q97.27 6.78 96.91 6.88Q96.54 6.99 96.26 7.18Q95.97 7.38 95.80 7.66Q95.63 7.95 95.63 8.33L95.63 8.33L95.63 8.41Q95.63 8.82 95.80 9.11Q95.97 9.39 96.30 9.60Q96.63 9.80 97.12 9.93Q97.61 10.07 98.27 10.16L98.27 10.16Q99.81 10.40 100.53 11.07Q101.26 11.73 101.26 12.85L101.26 12.85L101.26 13.02Q101.26 13.65 101.05 14.17Q100.83 14.70 100.40 15.08Q99.97 15.46 99.34 15.67Q98.71 15.88 97.89 15.88L97.89 15.88Q96.95 15.88 96.23 15.60Q95.51 15.33 95.03 14.85Q94.54 14.36 94.29 13.71Q94.04 13.06 94.04 12.29L94.04 12.29L94.04 11.87L95.21 11.87L95.21 12.21Q95.21 13.50 95.92 14.14Q96.63 14.78 97.89 14.78L97.89 14.78Q98.98 14.78 99.53 14.30Q100.09 13.82 100.09 13.02L100.09 13.02L100.09 12.94Q100.09 12.17 99.52 11.76Q98.95 11.35 97.68 11.17L97.68 11.17Q96.94 11.07 96.34 10.87Q95.75 10.67 95.33 10.34Q94.91 10.01 94.68 9.55Q94.46 9.09 94.46 8.46L94.46 8.46L94.46 8.29Q94.46 7.71 94.70 7.24Q94.93 6.76 95.36 6.41Q95.79 6.06 96.38 5.87Q96.98 5.68 97.69 5.68L97.69 5.68Q98.52 5.68 99.17 5.92Q99.82 6.16 100.27 6.56Q100.72 6.96 100.95 7.50Q101.18 8.04 101.18 8.62L101.18 8.62L101.18 9.21L100.00 9.21ZM115.57 9.21L115.57 8.71Q115.57 8.23 115.38 7.87Q115.19 7.50 114.87 7.27Q114.55 7.03 114.13 6.90Q113.71 6.78 113.25 6.78L113.25 6.78Q112.84 6.78 112.48 6.88Q112.11 6.99 111.83 7.18Q111.54 7.38 111.37 7.66Q111.20 7.95 111.20 8.33L111.20 8.33L111.20 8.41Q111.20 8.82 111.37 9.11Q111.54 9.39 111.87 9.60Q112.20 9.80 112.69 9.93Q113.18 10.07 113.83 10.16L113.83 10.16Q115.37 10.40 116.10 11.07Q116.83 11.73 116.83 12.85L116.83 12.85L116.83 13.02Q116.83 13.65 116.61 14.17Q116.40 14.70 115.97 15.08Q115.54 15.46 114.91 15.67Q114.28 15.88 113.46 15.88L113.46 15.88Q112.52 15.88 111.80 15.60Q111.08 15.33 110.59 14.85Q110.11 14.36 109.86 13.71Q109.61 13.06 109.61 12.29L109.61 12.29L109.61 11.87L110.78 11.87L110.78 12.21Q110.78 13.50 111.49 14.14Q112.20 14.78 113.46 14.78L113.46 14.78Q114.55 14.78 115.10 14.30Q115.65 13.82 115.65 13.02L115.65 13.02L115.65 12.94Q115.65 12.17 115.09 11.76Q114.52 11.35 113.25 11.17L113.25 11.17Q112.50 11.07 111.91 10.87Q111.31 10.67 110.89 10.34Q110.47 10.01 110.25 9.55Q110.03 9.09 110.03 8.46L110.03 8.46L110.03 8.29Q110.03 7.71 110.26 7.24Q110.50 6.76 110.93 6.41Q111.36 6.06 111.95 5.87Q112.55 5.68 113.26 5.68L113.26 5.68Q114.09 5.68 114.74 5.92Q115.39 6.16 115.84 6.56Q116.28 6.96 116.52 7.50Q116.75 8.04 116.75 8.62L116.75 8.62L116.75 9.21L115.57 9.21ZM141.29 6.97L141.29 5.88L147.50 5.88L147.50 6.97L144.98 6.97L144.98 14.59L147.50 14.59L147.50 15.68L141.29 15.68L141.29 14.59L143.81 14.59L143.81 6.97L141.29 6.97ZM159.05 5.88L161.88 15.18L162.05 15.18L162.05 5.88L163.23 5.88L163.23 15.68L160.87 15.68L158.05 6.38L157.88 6.38L157.88 15.68L156.70 15.68L156.70 5.88L159.05 5.88ZM174.40 15.68L171.63 5.88L172.89 5.88L175.45 15.18L175.62 15.18L178.18 5.88L179.44 5.88L176.67 15.68L174.40 15.68ZM188.13 15.68L188.13 5.88L194.07 5.88L194.07 6.97L189.31 6.97L189.31 10.22L193.98 10.22L193.98 11.31L189.31 11.31L189.31 14.59L194.15 14.59L194.15 15.68L188.13 15.68ZM205.76 5.88L208.59 15.18L208.75 15.18L208.75 5.88L209.93 5.88L209.93 15.68L207.58 15.68L204.75 6.38L204.58 6.38L204.58 15.68L203.41 15.68L203.41 5.88L205.76 5.88ZM218.79 6.97L218.79 5.88L225.68 5.88L225.68 6.97L222.82 6.97L222.82 15.68L221.65 15.68L221.65 6.97L218.79 6.97ZM234.36 11.87L234.36 9.69Q234.36 7.78 235.27 6.73Q236.18 5.68 237.80 5.68L237.80 5.68Q239.43 5.68 240.34 6.73Q241.25 7.78 241.25 9.69L241.25 9.69L241.25 11.87Q241.25 13.83 240.34 14.85Q239.43 15.88 237.80 15.88L237.80 15.88Q236.18 15.88 235.27 14.85Q234.36 13.83 234.36 11.87L234.36 11.87ZM237.80 14.78L237.80 14.78Q238.94 14.78 239.51 14.01Q240.07 13.23 240.07 11.79L240.07 11.79L240.07 9.77Q240.07 8.43 239.51 7.60Q238.94 6.78 237.80 6.78L237.80 6.78Q236.67 6.78 236.10 7.60Q235.54 8.43 235.54 9.77L235.54 9.77L235.54 11.79Q235.54 13.23 236.10 14.01Q236.67 14.78 237.80 14.78ZM256.44 12.15L256.44 15.68L255.26 15.68L255.26 12.40Q255.26 12.04 255.09 11.84Q254.93 11.65 254.51 11.65L254.51 11.65L251.45 11.65L251.45 15.68L250.28 15.68L250.28 5.88L253.78 5.88Q254.53 5.88 255.09 6.10Q255.65 6.31 256.03 6.68Q256.40 7.04 256.59 7.53Q256.77 8.01 256.77 8.54L256.77 8.54L256.77 8.96Q256.77 9.51 256.47 10.05Q256.17 10.60 255.54 10.89L255.54 10.89L255.54 11.06Q255.96 11.13 256.20 11.40Q256.44 11.66 256.44 12.15L256.44 12.15ZM251.45 6.97L251.45 10.56L253.64 10.56Q254.63 10.56 255.12 10.13Q255.60 9.70 255.60 8.88L255.60 8.88L255.60 8.62Q255.60 7.88 255.12 7.43Q254.63 6.97 253.64 6.97L253.64 6.97L251.45 6.97ZM268.35 15.68L268.35 12.24L268.10 12.24L265.03 5.88L266.35 5.88L268.86 11.23L269.02 11.23L271.53 5.88L272.85 5.88L269.78 12.24L269.53 12.24L269.53 15.68L268.35 15.68ZM302.39 9.21L302.39 8.71Q302.39 8.23 302.20 7.87Q302.01 7.50 301.69 7.27Q301.36 7.03 300.94 6.90Q300.52 6.78 300.06 6.78L300.06 6.78Q299.66 6.78 299.29 6.88Q298.93 6.99 298.64 7.18Q298.35 7.38 298.19 7.66Q298.02 7.95 298.02 8.33L298.02 8.33L298.02 8.41Q298.02 8.82 298.19 9.11Q298.35 9.39 298.68 9.60Q299.01 9.80 299.50 9.93Q299.99 10.07 300.65 10.16L300.65 10.16Q302.19 10.40 302.92 11.07Q303.65 11.73 303.65 12.85L303.65 12.85L303.65 13.02Q303.65 13.65 303.43 14.17Q303.21 14.70 302.79 15.08Q302.36 15.46 301.73 15.67Q301.10 15.88 300.27 15.88L300.27 15.88Q299.33 15.88 298.61 15.60Q297.89 15.33 297.41 14.85Q296.93 14.36 296.67 13.71Q296.42 13.06 296.42 12.29L296.42 12.29L296.42 11.87L297.60 11.87L297.60 12.21Q297.60 13.50 298.31 14.14Q299.01 14.78 300.27 14.78L300.27 14.78Q301.36 14.78 301.92 14.30Q302.47 13.82 302.47 13.02L302.47 13.02L302.47 12.94Q302.47 12.17 301.90 11.76Q301.34 11.35 300.06 11.17L300.06 11.17Q299.32 11.07 298.73 10.87Q298.13 10.67 297.71 10.34Q297.29 10.01 297.07 9.55Q296.84 9.09 296.84 8.46L296.84 8.46L296.84 8.29Q296.84 7.71 297.08 7.24Q297.32 6.76 297.75 6.41Q298.17 6.06 298.77 5.87Q299.36 5.68 300.08 5.68L300.08 5.68Q300.90 5.68 301.55 5.92Q302.20 6.16 302.65 6.56Q303.10 6.96 303.33 7.50Q303.56 8.04 303.56 8.62L303.56 8.62L303.56 9.21L302.39 9.21ZM312.54 6.97L312.54 5.88L318.75 5.88L318.75 6.97L316.23 6.97L316.23 14.59L318.75 14.59L318.75 15.68L312.54 15.68L312.54 14.59L315.06 14.59L315.06 6.97L312.54 6.97ZM327.57 15.68L327.57 5.88L329.81 5.88L331.13 15.18L331.30 15.18L332.61 5.88L334.85 5.88L334.85 15.68L333.76 15.68L333.76 6.38L333.59 6.38L332.28 15.68L330.15 15.68L328.83 6.38L328.66 6.38L328.66 15.68L327.57 15.68ZM347.19 11.65L344.86 11.65L344.86 15.68L343.69 15.68L343.69 5.88L347.19 5.88Q347.94 5.88 348.50 6.10Q349.06 6.31 349.43 6.68Q349.80 7.04 349.99 7.53Q350.18 8.01 350.18 8.54L350.18 8.54L350.18 8.96Q350.18 9.49 349.99 9.98Q349.80 10.47 349.43 10.84Q349.05 11.21 348.49 11.43Q347.93 11.65 347.19 11.65L347.19 11.65ZM344.86 6.97L344.86 10.56L347.05 10.56Q349.01 10.56 349.01 8.88L349.01 8.88L349.01 8.62Q349.01 7.88 348.52 7.43Q348.04 6.97 347.05 6.97L347.05 6.97L344.86 6.97ZM359.28 15.68L359.28 5.88L360.46 5.88L360.46 14.59L365.58 14.59L365.58 15.68L359.28 15.68ZM374.81 6.97L374.81 5.88L381.02 5.88L381.02 6.97L378.50 6.97L378.50 14.59L381.02 14.59L381.02 15.68L374.81 15.68L374.81 14.59L377.33 14.59L377.33 6.97L374.81 6.97ZM390.53 15.68L390.53 5.88L396.55 5.88L396.55 6.97L391.71 6.97L391.71 10.22L396.47 10.22L396.47 11.31L391.71 11.31L391.71 15.68L390.53 15.68ZM405.94 6.97L405.94 5.88L412.16 5.88L412.16 6.97L409.64 6.97L409.64 14.59L412.16 14.59L412.16 15.68L405.94 15.68L405.94 14.59L408.46 14.59L408.46 6.97L405.94 6.97ZM421.65 15.68L421.65 5.88L427.59 5.88L427.59 6.97L422.83 6.97L422.83 10.22L427.50 10.22L427.50 11.31L422.83 11.31L422.83 14.59L427.67 14.59L427.67 15.68L421.65 15.68ZM436.93 6.97L436.93 5.88L440.15 5.88Q441.97 5.88 442.81 6.75Q443.65 7.62 443.65 9.52L443.65 9.52L443.65 12.04Q443.65 13.94 442.81 14.81Q441.97 15.68 440.15 15.68L440.15 15.68L436.93 15.68L436.93 14.57L437.77 14.57L437.77 6.97L436.93 6.97ZM438.94 14.59L439.98 14.59Q440.62 14.59 441.09 14.46Q441.56 14.34 441.87 14.04Q442.18 13.73 442.32 13.23Q442.47 12.73 442.47 11.96L442.47 11.96L442.47 9.60Q442.47 8.83 442.32 8.33Q442.18 7.83 441.87 7.53Q441.56 7.22 441.09 7.10Q440.62 6.97 439.98 6.97L439.98 6.97L438.94 6.97L438.94 14.59Z"></path></g></svg>